<svg xmlns="http://www.w3.org/2000/svg" xmlns:xlink="http://www.w3.org/1999/xlink" viewBox="0 0 255.12 266.27"><defs><style>.cls-1{fill:#231f20;}.cls-2{fill:#1b4798;}.cls-3{fill:url(#linear-gradient);}.cls-4{fill:#e31e26;}.cls-5{fill:#26bcbd;}.cls-6{fill:url(#linear-gradient-2);}.cls-7{fill:url(#linear-gradient-3);}.cls-8{fill:url(#linear-gradient-4);}.cls-9{fill:#8a3292;}</style><linearGradient id="linear-gradient" x1="132.41" y1="24.26" x2="132.43" y2="24.27" gradientUnits="userSpaceOnUse"><stop offset="0" stop-color="#046a7c"/><stop offset="1" stop-color="#2b348f"/></linearGradient><linearGradient id="linear-gradient-2" x1="72.12" y1="89.12" x2="71.88" y2="89.73" gradientUnits="userSpaceOnUse"><stop offset="0" stop-color="#007d83"/><stop offset="0.49" stop-color="#52477d"/><stop offset="1" stop-color="#913a94"/></linearGradient><linearGradient id="linear-gradient-3" x1="89.57" y1="97.75" x2="89.47" y2="98.01" xlink:href="#linear-gradient-2"/><linearGradient id="linear-gradient-4" x1="90.2" y1="98.56" x2="90.13" y2="98.75" xlink:href="#linear-gradient-2"/></defs><g id="Capa_2" data-name="Capa 2"><g id="Layer_1" data-name="Layer 1"><path class="cls-1" d="M9.26,213.85H0V166H12.38l12.15,34.78L36.65,166H49v47.82H39.8l.33-34.72L28.05,213.85H21L8.87,179.13Z"/><path class="cls-1" d="M54.88,189.84a25.73,25.73,0,0,1,1-7.44,23.89,23.89,0,0,1,3.12-6.55,24.41,24.41,0,0,1,8.9-8,24.71,24.71,0,0,1,11.69-2.81,23.55,23.55,0,0,1,9.18,1.84,24.38,24.38,0,0,1,7.9,5.29,24.8,24.8,0,0,1,5.45,8,24,24,0,0,1,1.87,9.39,26.27,26.27,0,0,1-1.75,9.63,25.16,25.16,0,0,1-13.21,13.58,24.16,24.16,0,0,1-9.57,2,25,25,0,0,1-9.85-1.9,23.21,23.21,0,0,1-8-5.65,24.42,24.42,0,0,1-5.08-8A25.69,25.69,0,0,1,54.88,189.84Zm9.82-.33a15.91,15.91,0,0,0,1,5.75,15.31,15.31,0,0,0,3,4.86,15.86,15.86,0,0,0,5,3.7,13.64,13.64,0,0,0,5.78,1.29A14,14,0,0,0,90,200.65a15.54,15.54,0,0,0,4.25-11.14A14.23,14.23,0,0,0,90,179.09a14,14,0,0,0-10.29-4.32,14.58,14.58,0,0,0-10.64,4.3A14.09,14.09,0,0,0,64.7,189.51Z"/><path class="cls-1" d="M134.19,213.85H109.92V166h9.26v39.41h15Z"/><path class="cls-1" d="M155.77,213.85H139.51V166h16a33.8,33.8,0,0,1,10.41,1.31,18.74,18.74,0,0,1,7.09,4.41,21.11,21.11,0,0,1,5.13,7.94,29.8,29.8,0,0,1,1.74,10.48,26.87,26.87,0,0,1-2.43,11.64,21.63,21.63,0,0,1-7.06,8.46,16.9,16.9,0,0,1-5.88,2.76A37,37,0,0,1,155.77,213.85Zm-.59-8.21q7.78,0,11.46-3.81t3.68-11.92q0-7.46-4-11.6t-11.25-4.13h-6.11v31.46Z"/><path class="cls-1" d="M211.41,213.85H185.59V166h25.82v8.41H194.85v10.9h16.56v8.28H194.85v11.82h16.56Z"/><path class="cls-1" d="M235,197l-9.69,16.82H214.72l15.34-24.14L215.12,166h10.54L235,182.65,244.18,166h10.54l-14.84,23.68,15.24,24.14H244.58Z"/><path class="cls-1" d="M33,245.8c-.08,0-.12,0-.12-.11V234a.11.11,0,0,1,.12-.12h.56c.07,0,.11,0,.11.12v11.7a.1.1,0,0,1-.11.11Z"/><path class="cls-1" d="M56.17,245.69c0,.07,0,.11-.12.11H56a.09.09,0,0,1-.09-.05L48.58,236v9.71a.1.1,0,0,1-.11.11h-.55c-.08,0-.12,0-.12-.11V234a.11.11,0,0,1,.12-.12h0a.09.09,0,0,1,.09.05l7.36,9.82V234a.1.1,0,0,1,.11-.11h.56c.08,0,.12,0,.12.11Z"/><path class="cls-1" d="M78.62,245.69a.1.1,0,0,1-.11.11h-.06a.09.09,0,0,1-.09-.05L71,236v9.71c0,.07,0,.11-.12.11h-.55a.1.1,0,0,1-.11-.11V234c0-.08,0-.12.11-.12h0a.09.09,0,0,1,.09.05l7.35,9.82V234c0-.07,0-.11.12-.11h.56a.1.1,0,0,1,.11.11Z"/><path class="cls-1" d="M95.65,245.34a6.27,6.27,0,0,1-1.9-1.29A6,6,0,0,1,92,239.83a5.94,5.94,0,0,1,.47-2.32,5.92,5.92,0,0,1,3.18-3.17,5.87,5.87,0,0,1,4.65,0,5.88,5.88,0,0,1,1.89,1.27,6.06,6.06,0,0,1,1.28,1.9,6,6,0,0,1,0,4.64,5.84,5.84,0,0,1-1.28,1.9,6.11,6.11,0,0,1-1.89,1.29,6.11,6.11,0,0,1-4.65,0ZM96,235.06a5.19,5.19,0,0,0-3.17,4.77,5.21,5.21,0,0,0,.41,2,5.11,5.11,0,0,0,1.11,1.65A5.24,5.24,0,0,0,96,244.6a5,5,0,0,0,2,.41,5,5,0,0,0,2-.41,5.06,5.06,0,0,0,2.75-2.75,5,5,0,0,0,.41-2,5,5,0,0,0-.41-2,5.24,5.24,0,0,0-1.1-1.65,5.11,5.11,0,0,0-1.65-1.11,5.21,5.21,0,0,0-2-.41A5.12,5.12,0,0,0,96,235.06Z"/><path class="cls-1" d="M121.08,245.73a.11.11,0,0,1-.11.07h-.67a.11.11,0,0,1-.11-.07l-4-11.72a.12.12,0,0,1,0-.1.11.11,0,0,1,.09,0h.59a.11.11,0,0,1,.11.08l3.66,10.65,3.66-10.65a.11.11,0,0,1,.11-.08H125a.14.14,0,0,1,.1,0,.09.09,0,0,1,0,.1Z"/><path class="cls-1" d="M140.52,233.86a.12.12,0,0,1,.11.07l4.86,11.71a.11.11,0,0,1,0,.11s0,.05-.1.05h-.6a.12.12,0,0,1-.11-.07l-2-4.88h-5l-2,4.88a.11.11,0,0,1-.11.07h-.6a.11.11,0,0,1-.1-.05.14.14,0,0,1,0-.11l4.87-11.71a.1.1,0,0,1,.1-.07Zm1.81,6.2-2.17-5.21L138,240.06Z"/><path class="cls-1" d="M162.78,233.87a.11.11,0,0,1,.12.12v.55a.11.11,0,0,1-.12.12h-3.35v11c0,.07,0,.11-.12.11h-.56a.1.1,0,0,1-.11-.11v-11h-3.35a.11.11,0,0,1-.12-.12V234a.11.11,0,0,1,.12-.12Z"/><path class="cls-1" d="M175.27,245.8c-.08,0-.12,0-.12-.11V234a.11.11,0,0,1,.12-.12h.56a.11.11,0,0,1,.12.12v11.7c0,.07,0,.11-.12.11Z"/><path class="cls-1" d="M198.4,245.69c0,.07,0,.11-.12.11h-.05a.11.11,0,0,1-.1-.05L190.82,236v9.71c0,.07,0,.11-.12.11h-.55c-.08,0-.12,0-.12-.11V234a.11.11,0,0,1,.12-.12h0a.1.1,0,0,1,.09.05l7.35,9.82V234c0-.07,0-.11.12-.11h.55c.08,0,.12,0,.12.11Z"/><path class="cls-1" d="M215.61,245.37a5.94,5.94,0,0,1-3.38-3.49,5.89,5.89,0,0,1-.33-2.57,6,6,0,0,1,5.56-5.42,5.9,5.9,0,0,1,2.47.37,6,6,0,0,1,2.1,1.34.1.1,0,0,1,0,.17l-.4.39a.12.12,0,0,1-.17,0,4.9,4.9,0,0,0-3.59-1.49,5.21,5.21,0,0,0-5.2,4.77,5.22,5.22,0,0,0,.29,2.15,5.19,5.19,0,0,0,4.87,3.43,5,5,0,0,0,3.58-1.44v-2.75h-2.49a.11.11,0,0,1-.12-.12v-.55a.11.11,0,0,1,.12-.12h3.16a.11.11,0,0,1,.12.12v3.69a.11.11,0,0,1,0,.09h0a6.3,6.3,0,0,1-1.83,1.3,5.94,5.94,0,0,1-4.71.12Z"/><path class="cls-1" d="M64.33,266.16a.1.1,0,0,1-.11.11h-.61a.11.11,0,0,1-.09,0L60,260.77l-3.5,5.45a.14.14,0,0,1-.1,0h-.62a.11.11,0,0,1-.12-.11l-.8-11.7a.11.11,0,0,1,.12-.12h.56a.1.1,0,0,1,.11.11L56.37,265l3.48-5.4a.12.12,0,0,1,.09-.05h.12a.1.1,0,0,1,.1.06l3.46,5.38.72-10.49c0-.07,0-.11.12-.11H65q.13,0,.12.12Z"/><path class="cls-1" d="M79,266.27c-.07,0-.11,0-.11-.12v-11.7c0-.08,0-.12.11-.12h.56a.11.11,0,0,1,.12.12v11.7a.11.11,0,0,1-.12.12Z"/><path class="cls-1" d="M99.68,254.33a.11.11,0,0,1,.12.12V255c0,.08,0,.11-.12.11H96.33v11a.11.11,0,0,1-.12.12h-.56c-.07,0-.1,0-.1-.12v-11H92.19c-.08,0-.12,0-.12-.11v-.56a.11.11,0,0,1,.12-.12Z"/><path class="cls-1" d="M112.17,266.25c-.07,0-.11,0-.11-.12V254.45c0-.08,0-.12.11-.12h.56c.07,0,.11,0,.11.12v11.68c0,.08,0,.12-.11.12Zm8.25-5.56h-8.36v-.79h8.36Zm-.66,5.58a.11.11,0,0,1-.12-.12V254.47a.11.11,0,0,1,.12-.12h.56c.07,0,.1,0,.1.12v11.68c0,.08,0,.12-.1.12Z"/><path class="cls-1" d="M155.33,254.32a.11.11,0,0,1,.1.05.09.09,0,0,1,0,.12l-3.39,5.4L152,260v6.14c0,.08,0,.12-.11.12h-.56c-.07,0-.11,0-.11-.12V260l-3.46-5.51a.09.09,0,0,1,0-.12.11.11,0,0,1,.1-.05h.65c.05,0,.08,0,.1.05l3,4.78,3-4.78s0-.05.1-.05Z"/><path class="cls-1" d="M170.27,265.8a6,6,0,0,1-3.18-3.18,6,6,0,0,1,0-4.65,6.24,6.24,0,0,1,1.28-1.9,6,6,0,0,1,1.9-1.27,6,6,0,0,1,4.65,0,5.86,5.86,0,0,1,3.17,3.17,6,6,0,0,1,0,4.65,6,6,0,0,1-1.27,1.9,6.24,6.24,0,0,1-1.9,1.28,6,6,0,0,1-4.65,0Zm.31-10.28a5.27,5.27,0,0,0-1.65,1.11,5.11,5.11,0,0,0-1.11,1.65,5.28,5.28,0,0,0,0,4,5.15,5.15,0,0,0,4.77,3.16,5.16,5.16,0,0,0,2-.4,5.11,5.11,0,0,0,1.65-1.11,5.27,5.27,0,0,0,1.11-1.65,5.28,5.28,0,0,0,0-4,5.18,5.18,0,0,0-2.76-2.76,5.28,5.28,0,0,0-4,0Z"/><path class="cls-1" d="M193.05,265a3.92,3.92,0,0,1-1.1-2.77v-7.81a.11.11,0,0,1,.12-.12h.55c.08,0,.11,0,.11.12v7.82a3.13,3.13,0,0,0,.87,2.21,3.09,3.09,0,0,0,4.43.11,3,3,0,0,0,1-2.25v-7.89c0-.08,0-.12.11-.12h.56c.07,0,.11,0,.11.12v7.89a3.88,3.88,0,0,1-6.72,2.69Z"/><path class="cls-2" d="M183.83,47.31a17.34,17.34,0,0,1-1.78,6.48c-.18.38-.39.74-.6,1.1-.07.11-.13.22-.2.32l-.29.45a.24.24,0,0,1-.06.09l-.21.3a.76.76,0,0,1-.08.11.25.25,0,0,1,0,.07l-.21.29c-.07.08-.14.18-.22.26s0,0,0,0l0,0h0l0,0-.35.44a20.46,20.46,0,0,1-1.45,1.5h0a16.45,16.45,0,0,1-1.65,1.35l-.49.34a14,14,0,0,1-1.44.86l-.08,0-.27.13a.09.09,0,0,1-.08,0c-.21.13-.43.22-.64.33s-.7.29-1.05.41l0,0-.41.14h0l-.32.11a1.55,1.55,0,0,1-.23.08h0a1.47,1.47,0,0,0-.28.08h0s0,0-.06,0h-.08s-.05,0-.08,0c-1.77.52-3.63,1-5.53,1.46l-2.93.87h0l-.39.1-.31.11c-5.4,1.85-10.67,5.1-14,13.58a11.84,11.84,0,0,1-8.6,6.78,13.51,13.51,0,0,1-1.67.11,13.19,13.19,0,0,1-13-11c-1.31-8-4.91-14.55-12.84-20.05v0a4.62,4.62,0,0,0-.8-.53.86.86,0,0,0-.22-.15,6.35,6.35,0,0,0-3.06-.78,6.26,6.26,0,0,0-3.59,1.11c.59-.47,1.19-.89,1.81-1.3l1.69-.92.4-.21C110,51,114,49.18,114.24,49a24.06,24.06,0,0,0,2.78-1c.57-.26,1.13-.5,1.68-.79,0,0,0,0,0,0a18.89,18.89,0,0,0,2.61-1.52c.19-.12.38-.24.55-.37a22.06,22.06,0,0,0,2.35-1.86l1.18-1.18A25.33,25.33,0,0,0,128,39.22a26,26,0,0,0,2.12-3.76c.24-.51.47-1,.67-1.57a21.27,21.27,0,0,0,.71-2.13c0-.1.06-.21.08-.33-2,15.13-4.28,27.65,4.38,36.49A5.62,5.62,0,0,0,139.59,69c6.68-.66,10-7.35,9.76-19.13v0s0,0,0,0a17.47,17.47,0,0,1,4.22-15.66,15.78,15.78,0,0,1,2.08-1.92h0a17.47,17.47,0,0,1,22.83,1.15,10.72,10.72,0,0,1,.94,1s0,0,0,0a16.39,16.39,0,0,1,1.17,1.47h0A17.41,17.41,0,0,1,183.83,47.31Z"/><path class="cls-3" d="M132.43,24.19s0,.09,0,.15V24.2Z"/><path class="cls-4" d="M209.37,108.47a17.32,17.32,0,0,1-1.52,7.14,15.52,15.52,0,0,1-.94,1.81,17.16,17.16,0,0,1-2.66,3.41,17.46,17.46,0,0,1-16.88,4.52,17.12,17.12,0,0,1-1.8-.58,17.4,17.4,0,0,1-5.18-3.15c-.3-.25-.57-.51-.85-.79A18.85,18.85,0,0,1,178,119a17.47,17.47,0,0,1-3.52-9.6,17.82,17.82,0,0,1,.16-3.5,17.56,17.56,0,0,1,2.54-6.82l-.25.38c2.19-4.65,2.17-9.79,1.54-14.79A26.74,26.74,0,0,0,170.76,69c-.51-.5-1.4-1.33-2.39-2.21l-.17-.15a1.43,1.43,0,0,0-.23-.2,6.37,6.37,0,0,0-5.43-1.26l2.93-.87c1.9-.49,3.76-.94,5.53-1.46,0,0,.06,0,.08,0h.08l.13,0h.06l.13,0,0,0h0a1.55,1.55,0,0,0,.23-.08l.32-.11h0l.41-.14h0v0c.35-.12.7-.27,1.05-.41s.43-.2.64-.33a.09.09,0,0,0,.08,0l.27-.13.08,0a14,14,0,0,0,1.44-.86l.49-.34a16.45,16.45,0,0,0,1.65-1.35h0a20.46,20.46,0,0,0,1.45-1.5l.35-.44,0,0h0l0,0s0,0,0,0,.15-.18.22-.26l.21-.29a.25.25,0,0,0,0-.07.76.76,0,0,0,.08-.11l.21-.3a.24.24,0,0,0,.06-.09,1.37,1.37,0,0,0,.15-.21c0-.08.1-.16.14-.24s.13-.21.2-.32a25.58,25.58,0,0,0-1.53,7.46A28.18,28.18,0,0,0,184.65,82a26.12,26.12,0,0,0,2.84,3.35c2.84,2.84,5.36,4.92,8.91,6.2l-.33-.07a17.38,17.38,0,0,1,6.47,3.11,18.48,18.48,0,0,1,1.71,1.51l.65.67c.28.31.54.63.81,1s.65.88.94,1.35A17.36,17.36,0,0,1,209.37,108.47Z"/><path class="cls-5" d="M132.41,24.2v.14a24.28,24.28,0,0,1-.6,6.15c-.07.32-.15.63-.24.94,0,.12-.06.23-.08.33a21.27,21.27,0,0,1-.71,2.13c-.2.54-.43,1.06-.67,1.57A26,26,0,0,1,128,39.22a25.33,25.33,0,0,1-2.56,3.11l-1.18,1.18a22.06,22.06,0,0,1-2.35,1.86c-.17.13-.36.25-.55.37a18.89,18.89,0,0,1-2.61,1.52s0,0,0,0c-.55.29-1.11.53-1.68.79a24.06,24.06,0,0,1-2.78,1c-.26.14-4.28,1.92-6.41,3l-.4.21-1.69.92c-.62.41-1.22.83-1.81,1.3a2.81,2.81,0,0,0-.44.33s-.06,0-.07,0a38.41,38.41,0,0,0-11.65,46c-.15-.22-.29-.44-.45-.66s-.2-.31-.32-.46l-.17-.24h0l-.33-.42s0,0,0,0a1.49,1.49,0,0,0-.15-.2l-.16-.21a1.46,1.46,0,0,0-.16-.19l-.15-.19-.09-.1-.5-.57-.2-.22c-.19-.21-.39-.41-.59-.61l-.6-.58h0l-.14-.11h0l-.18-.16-.18-.17a25.12,25.12,0,0,0-3.92-2.87c-.42-.25-.86-.49-1.3-.72-.27-.14-.54-.28-.82-.41s-.43-.2-.63-.29a22.36,22.36,0,0,0-2.16-.82l-.18-.06c-.29-.1-.58-.18-.87-.26-.54-.16-1.09-.29-1.64-.41q-1.23-.25-2.49-.39h-.1a23.55,23.55,0,0,0-2.53-.13h-.83c-.55,0-1.09.06-1.62.11s-1,.11-1.49.2l-.23,0c-.48.08-1,.18-1.43.29l-.77.19c7.2-2.64,12.23-7.4,16.66-13.5a38.2,38.2,0,0,0,7.35-22.61,39.71,39.71,0,0,0-.23-6.29c-.56-3.68-.89-6.87-2.32-10.21a26.3,26.3,0,0,1-1.47-3c-.34-.84-.63-1.69-.89-2.52s-.49-1.91-.67-2.87a24.93,24.93,0,0,1,.59-11l.06-.22h0a.53.53,0,0,1,.06-.16c.12-.43.26-.86.41-1.28.25-.59.51-1.18.73-1.78l0,0c0-.16.12-.31.17-.45.19-.4.38-.76.58-1.15s.34-.57.51-.9l0,0a23.31,23.31,0,0,1,2.62-3.64c.31-.37.65-.71,1-1.05a25.11,25.11,0,0,1,8.28-5.59A24.81,24.81,0,0,1,114.46,1a15,15,0,0,1,1.88.65v0c.77.3,1.49.62,2.2,1l.61.31A24.88,24.88,0,0,1,130.52,15.4,25.19,25.19,0,0,1,132.41,24.2Z"/><path class="cls-6" d="M73.27,89.48c-.83-.08-1.69-.13-2.53-.13A23.55,23.55,0,0,1,73.27,89.48Z"/><path class="cls-7" d="M89.77,98.16c-.1-.12-.21-.24-.32-.35l-.18-.22Z"/><path class="cls-8" d="M90.33,98.85l-.17-.21L90,98.45a1.46,1.46,0,0,1,.16.19Z"/><path class="cls-9" d="M95.72,114.35a15.29,15.29,0,0,1-.06,1.53,24.6,24.6,0,0,1-5.18,13.79A23.52,23.52,0,0,1,87.4,133a24.9,24.9,0,0,1-16.66,6.38,25.19,25.19,0,0,1-8.59-1.51l-.08,0c-.72-.28-1.44-.58-2.14-.91-.18-.09-.35-.17-.52-.27a25.77,25.77,0,0,1-3.24-1.95l-.47-.37a25.56,25.56,0,0,1-3.78-3.5l-.33-.39a25,25,0,0,1-3.35-27,25.16,25.16,0,0,1,2.39-4,26.22,26.22,0,0,1,2.5-2.87,24.52,24.52,0,0,1,7-4.88c.21-.11.42-.2.63-.3l.9-.36h0a22,22,0,0,1,2.68-.86s0,0,0,0l.77-.19c.47-.11,1-.2,1.43-.29l.23,0c.49-.08,1-.15,1.49-.2s1.07-.09,1.62-.11h.83a23.55,23.55,0,0,1,2.53.13h.1q1.26.14,2.49.39c.55.12,1.1.25,1.64.41l.87.26.18.06a22.36,22.36,0,0,1,2.16.82c.21.1.43.19.63.3l.82.4c.44.23.87.47,1.3.72a25.12,25.12,0,0,1,3.92,2.87l.18.17.18.17c.05,0,.08.08.14.12l.6.58c.2.2.4.4.59.61l.2.22.5.57.09.1.15.19a1.46,1.46,0,0,1,.16.19l.16.21a1.49,1.49,0,0,1,.15.2s0,0,0,0c.18.22.35.44.51.67s.22.3.32.46.3.44.45.66h0a23.07,23.07,0,0,1,2.08,4,24.58,24.58,0,0,1,1.84,8.6A8.72,8.72,0,0,1,95.72,114.35Z"/></g></g></svg>