<svg xmlns="http://www.w3.org/2000/svg" xmlns:xlink="http://www.w3.org/1999/xlink" viewBox="0 0 269.29 70.05"><defs><style>.cls-1{fill:#5c5b60;}.cls-2{fill:#59595c;}.cls-3{fill:url(#linear-gradient);}.cls-4{fill:url(#linear-gradient-2);}.cls-5{fill:url(#linear-gradient-3);}.cls-6{fill:url(#linear-gradient-4);}.cls-7{fill:url(#linear-gradient-5);}.cls-8{fill:url(#linear-gradient-6);}.cls-9{fill:url(#radial-gradient);}.cls-10{fill:url(#radial-gradient-2);}.cls-11{fill:url(#radial-gradient-3);}.cls-12{fill:url(#radial-gradient-4);}</style><linearGradient id="linear-gradient" x1="35.47" y1="28.33" x2="57.18" y2="32.01" gradientUnits="userSpaceOnUse"><stop offset="0" stop-color="#053f51"/><stop offset="1" stop-color="#1d4798"/></linearGradient><linearGradient id="linear-gradient-2" x1="58.61" y1="32.75" x2="60" y2="33.57" gradientUnits="userSpaceOnUse"><stop offset="0" stop-color="#046271"/><stop offset="1" stop-color="#2e2d75"/></linearGradient><linearGradient id="linear-gradient-3" x1="33.74" y1="18.24" x2="37.51" y2="20.31" gradientUnits="userSpaceOnUse"><stop offset="0" stop-color="#046a7c"/><stop offset="1" stop-color="#2b378c"/></linearGradient><linearGradient id="linear-gradient-4" x1="55.11" y1="27.86" x2="59.65" y2="30.36" xlink:href="#linear-gradient-3"/><linearGradient id="linear-gradient-5" x1="59.1" y1="34.26" x2="69.76" y2="48.11" gradientUnits="userSpaceOnUse"><stop offset="0" stop-color="#161342"/><stop offset="0.86" stop-color="#ab1f26"/><stop offset="0.94" stop-color="#d92127"/><stop offset="1" stop-color="#ec2f2a"/></linearGradient><linearGradient id="linear-gradient-6" x1="25.78" y1="24.63" x2="17.38" y2="45.82" gradientUnits="userSpaceOnUse"><stop offset="0" stop-color="#007e82"/><stop offset="1" stop-color="#2b1137"/></linearGradient><radialGradient id="radial-gradient" cx="6686.25" cy="1059.58" r="5.66" gradientTransform="translate(12687.74 2049.1) rotate(180) scale(1.89 1.89)" gradientUnits="userSpaceOnUse"><stop offset="0" stop-color="#f79720"/><stop offset="0.11" stop-color="#ef6425"/><stop offset="0.44" stop-color="#e82429"/><stop offset="0.54" stop-color="#e22329"/><stop offset="0.67" stop-color="#cf2228"/><stop offset="0.83" stop-color="#b21f27"/><stop offset="0.99" stop-color="#8a1c25"/></radialGradient><radialGradient id="radial-gradient-2" cx="517.52" cy="-118.46" r="9.79" gradientTransform="translate(-959.08 274.56) scale(1.89 1.89)" gradientUnits="userSpaceOnUse"><stop offset="0" stop-color="#c67fb5"/><stop offset="0.12" stop-color="#a8569f"/><stop offset="0.22" stop-color="#934493"/><stop offset="0.44" stop-color="#842a8c"/><stop offset="0.59" stop-color="#7e2987"/><stop offset="0.8" stop-color="#6b2779"/><stop offset="1" stop-color="#542567"/></radialGradient><radialGradient id="radial-gradient-3" cx="526.57" cy="-141.88" r="8.62" gradientTransform="translate(-959.08 274.56) scale(1.89 1.89)" gradientUnits="userSpaceOnUse"><stop offset="0" stop-color="#afddd5"/><stop offset="0.16" stop-color="#58c4c9"/><stop offset="0.32" stop-color="#00b0b9"/><stop offset="0.78" stop-color="#008f9c"/><stop offset="1" stop-color="#007e82"/></radialGradient><radialGradient id="radial-gradient-4" cx="541.97" cy="-135.64" r="6.87" gradientTransform="translate(-959.08 274.56) scale(1.89 1.89)" gradientUnits="userSpaceOnUse"><stop offset="0" stop-color="#48c1eb"/><stop offset="0" stop-color="#70cded"/><stop offset="0.15" stop-color="#1ea1db"/><stop offset="0.26" stop-color="#1b98d5"/><stop offset="1" stop-color="#1d4798"/></radialGradient></defs><g id="Layer_2" data-name="Layer 2"><g id="Layer_1-2" data-name="Layer 1"><path class="cls-1" d="M99.09,33.76H92.68V.66h8.57l8.41,24.08L118.05.66h8.57v33.1h-6.39l.23-24-8.37,24h-4.88l-8.39-24Z"/><path class="cls-1" d="M130.67,17.14A17.66,17.66,0,0,1,131.4,12a16.26,16.26,0,0,1,2.16-4.53,17,17,0,0,1,6.16-5.52A17.22,17.22,0,0,1,147.81,0a16.37,16.37,0,0,1,6.36,1.27,17.06,17.06,0,0,1,5.47,3.66,17.33,17.33,0,0,1,3.77,5.57,16.77,16.77,0,0,1,1.3,6.51,18.19,18.19,0,0,1-1.22,6.66,16.22,16.22,0,0,1-3.58,5.52,16.38,16.38,0,0,1-5.56,3.88,16.73,16.73,0,0,1-6.63,1.35,17.31,17.31,0,0,1-6.82-1.32,15.76,15.76,0,0,1-5.52-3.91,16.87,16.87,0,0,1-3.52-5.51A18,18,0,0,1,130.67,17.14Zm6.8-.22a11,11,0,0,0,.7,4,10.72,10.72,0,0,0,2.09,3.37,10.93,10.93,0,0,0,3.46,2.56,9.37,9.37,0,0,0,4,.9,9.63,9.63,0,0,0,7.29-3.1,10.74,10.74,0,0,0,2.94-7.7,9.9,9.9,0,0,0-3-7.22,9.67,9.67,0,0,0-7.13-3,10.09,10.09,0,0,0-7.37,3A9.77,9.77,0,0,0,137.47,16.92Z"/><path class="cls-1" d="M185.58,33.76h-16.8V.66h6.41V27.94h10.39Z"/><path class="cls-1" d="M200.52,33.76H189.26V.66h11.07a23.14,23.14,0,0,1,7.21.91,13,13,0,0,1,4.91,3.05,14.8,14.8,0,0,1,3.55,5.5,20.69,20.69,0,0,1,1.2,7.25,18.65,18.65,0,0,1-1.68,8.06,15,15,0,0,1-4.89,5.86,11.43,11.43,0,0,1-4.07,1.9A25.53,25.53,0,0,1,200.52,33.76Zm-.41-5.68q5.38,0,7.93-2.64t2.55-8.25q0-5.16-2.79-8T200,6.3h-4.22V28.08Z"/><path class="cls-1" d="M239,33.76H221.16V.66H239V6.48H227.57V14H239v5.73H227.57v8.18H239Z"/><path class="cls-1" d="M255.33,22.12l-6.71,11.64h-7.29l10.61-16.71L241.6.66h7.3l6.43,11.5L261.72.66H269L258.74,17.05l10.55,16.71H262Z"/><path class="cls-2" d="M115.55,55.88s-.08,0-.08-.08V47.7a.07.07,0,0,1,.08-.08h.39a.07.07,0,0,1,.08.08v8.1c0,.06,0,.08-.08.08Z"/><path class="cls-2" d="M131.56,55.8c0,.06,0,.08-.08.08h0a.06.06,0,0,1-.06,0l-5.07-6.76V55.8c0,.06,0,.08-.08.08h-.38s-.08,0-.08-.08V47.72c0-.06,0-.09.08-.09h0a.06.06,0,0,1,.06,0L131,54.47V47.71c0-.05,0-.08.09-.08h.38c.06,0,.08,0,.08.08Z"/><path class="cls-2" d="M147.11,55.8c0,.06,0,.08-.08.08h0a.09.09,0,0,1-.07,0l-5.06-6.76V55.8c0,.06,0,.08-.08.08h-.38c-.06,0-.09,0-.09-.08V47.72a.08.08,0,0,1,.09-.09h0a.09.09,0,0,1,.06,0l5.09,6.81V47.71a.07.07,0,0,1,.08-.08H147a.07.07,0,0,1,.08.08Z"/><path class="cls-2" d="M158.89,55.56a4.12,4.12,0,0,1-1.31-6.73,4,4,0,0,1,1.31-.88,4.09,4.09,0,0,1,3.22,0,4.07,4.07,0,0,1,2.2,2.19,4.09,4.09,0,0,1,0,3.22,4.14,4.14,0,0,1-.88,1.31,4.33,4.33,0,0,1-1.32.89,4.21,4.21,0,0,1-3.22,0Zm.22-7.11a3.5,3.5,0,0,0-1.14.76,3.69,3.69,0,0,0-.77,1.15,3.49,3.49,0,0,0-.28,1.39,3.56,3.56,0,0,0,2.19,3.3,3.5,3.5,0,0,0,1.39.29,3.55,3.55,0,0,0,1.4-.29,3.5,3.5,0,0,0,1.14-.76,3.59,3.59,0,0,0,.77-3.93,3.87,3.87,0,0,0-.77-1.15,3.61,3.61,0,0,0-3.93-.76Z"/><path class="cls-2" d="M176.5,55.83s0,.05-.08.05H176s-.06,0-.07-.05l-2.79-8.11a.08.08,0,0,1,0-.07.09.09,0,0,1,.07,0h.41a.07.07,0,0,1,.07.05l2.53,7.38,2.54-7.38a.07.07,0,0,1,.07-.05h.41a.11.11,0,0,1,.07,0,.08.08,0,0,1,0,.07Z"/><path class="cls-2" d="M190,47.62a.07.07,0,0,1,.07,0l3.37,8.11a.08.08,0,0,1,0,.08.08.08,0,0,1-.07,0h-.41a.07.07,0,0,1-.08-.05l-1.4-3.38H188l-1.4,3.38a.07.07,0,0,1-.08.05h-.41a.09.09,0,0,1-.07,0,.08.08,0,0,1,0-.08l3.37-8.11a.08.08,0,0,1,.07,0Zm1.25,4.29-1.5-3.61-1.5,3.61Z"/><path class="cls-2" d="M205.37,47.62a.07.07,0,0,1,.08.08v.39a.07.07,0,0,1-.08.08h-2.32V55.8c0,.06,0,.08-.08.08h-.39c-.05,0-.08,0-.08-.08V48.17h-2.32a.07.07,0,0,1-.08-.08V47.7a.07.07,0,0,1,.08-.08Z"/><path class="cls-2" d="M214,55.88c-.06,0-.09,0-.09-.08V47.7c0-.05,0-.08.09-.08h.38c.06,0,.08,0,.08.08v8.1c0,.06,0,.08-.08.08Z"/><path class="cls-2" d="M230,55.8c0,.06,0,.08-.08.08h0a.09.09,0,0,1-.07,0l-5.06-6.76V55.8c0,.06,0,.08-.08.08h-.39c-.05,0-.08,0-.08-.08V47.72c0-.06,0-.09.08-.09h0a.09.09,0,0,1,.06,0l5.09,6.81V47.71a.07.07,0,0,1,.08-.08H230a.07.07,0,0,1,.08.08Z"/><path class="cls-2" d="M241.94,55.58a3.9,3.9,0,0,1-1.42-.95,4.09,4.09,0,0,1-1.15-3.24,4.14,4.14,0,0,1,3.85-3.75,4.09,4.09,0,0,1,1.71.25,4.33,4.33,0,0,1,1.46.93.09.09,0,0,1,0,.12l-.28.27a.09.09,0,0,1-.12,0,3.36,3.36,0,0,0-2.49-1,3.58,3.58,0,0,0-2.64,6,3.58,3.58,0,0,0,5.1.14v-1.9h-1.73s-.08,0-.08-.08V52c0-.06,0-.08.08-.08h2.19c.05,0,.08,0,.08.08v2.56a.08.08,0,0,1,0,.05h0a4.46,4.46,0,0,1-1.27.9,4,4,0,0,1-1.5.38A4.06,4.06,0,0,1,241.94,55.58Z"/><path class="cls-2" d="M137.21,70s0,.07-.08.07h-.42a.07.07,0,0,1-.06,0l-2.43-3.77L131.79,70a.09.09,0,0,1-.07,0h-.43s-.07,0-.08-.07l-.55-8.1c0-.06,0-.08.08-.08h.39c.05,0,.07,0,.07.07l.5,7.28,2.41-3.74a.09.09,0,0,1,.07,0h.08a.08.08,0,0,1,.07,0l2.39,3.72.5-7.26s0-.07.08-.07h.39c.05,0,.08,0,.08.08Z"/><path class="cls-2" d="M147.4,70.05a.07.07,0,0,1-.08-.08v-8.1a.07.07,0,0,1,.08-.08h.39a.07.07,0,0,1,.08.08V70a.07.07,0,0,1-.08.08Z"/><path class="cls-2" d="M161.69,61.79a.07.07,0,0,1,.08.08v.39a.07.07,0,0,1-.08.08h-2.33V70s0,.08-.08.08h-.38a.07.07,0,0,1-.08-.08V62.34H156.5a.07.07,0,0,1-.08-.08v-.39a.07.07,0,0,1,.08-.08Z"/><path class="cls-2" d="M170.33,70a.07.07,0,0,1-.08-.08V61.87a.07.07,0,0,1,.08-.08h.39c.05,0,.07,0,.07.08V70c0,.05,0,.08-.07.08Zm5.72-3.85h-5.8v-.55h5.8Zm-.47,3.86a.07.07,0,0,1-.08-.08V61.88a.07.07,0,0,1,.08-.08H176a.07.07,0,0,1,.08.08V70a.07.07,0,0,1-.08.08Z"/><path class="cls-2" d="M200.21,61.78a.07.07,0,0,1,.07,0,.06.06,0,0,1,0,.08l-2.35,3.74-.05.08V70a.07.07,0,0,1-.08.08h-.39s-.07,0-.07-.08V65.71l-2.4-3.81a.06.06,0,0,1,0-.08.07.07,0,0,1,.07,0h.45a.08.08,0,0,1,.07,0l2.08,3.31,2.08-3.31a.08.08,0,0,1,.07,0Z"/><path class="cls-2" d="M210.55,69.73a4.22,4.22,0,0,1-2.2-2.2,4.21,4.21,0,0,1,0-3.22,4.33,4.33,0,0,1,.89-1.32,4.14,4.14,0,0,1,1.31-.88,4.09,4.09,0,0,1,3.22,0,4.14,4.14,0,0,1,1.31.88,4.33,4.33,0,0,1,.89,1.32,4.09,4.09,0,0,1,0,3.22,4.16,4.16,0,0,1-5.42,2.2Zm.22-7.12a3.7,3.7,0,0,0-1.14.77,3.56,3.56,0,0,0-1,2.54,3.49,3.49,0,0,0,.28,1.39,3.62,3.62,0,0,0,1.91,1.91,3.49,3.49,0,0,0,1.39.28,3.56,3.56,0,0,0,3.3-2.19,3.5,3.5,0,0,0,.29-1.39,3.55,3.55,0,0,0-.29-1.4,3.5,3.5,0,0,0-.76-1.14,3.59,3.59,0,0,0-3.93-.77Z"/><path class="cls-2" d="M226.32,69.2a2.71,2.71,0,0,1-.76-1.92v-5.4c0-.06,0-.08.08-.08H226c.06,0,.08,0,.08.08v5.41a2.17,2.17,0,0,0,.6,1.53,2.14,2.14,0,0,0,3.07.08,2.1,2.1,0,0,0,.66-1.56V61.88c0-.06,0-.08.08-.08h.39s.08,0,.08.08v5.46a2.72,2.72,0,0,1-2.79,2.71A2.6,2.6,0,0,1,226.32,69.2Z"/><path class="cls-3" d="M62,31.85l-.55.16-2.08.53L57.91,33l-.22.06-.15,0a10.65,10.65,0,0,0-7,6.73,5.89,5.89,0,0,1-4.26,3.37,8,8,0,0,1-.84,0A6.55,6.55,0,0,1,39,37.79a14.08,14.08,0,0,0-6.36-9.94h0a2.09,2.09,0,0,0-.39-.27.41.41,0,0,0-.11-.07,3.16,3.16,0,0,0-3.3.16c.29-.23.59-.44.9-.64l.84-.46,2.63-1.41h0a3.39,3.39,0,0,0,.39-.08,15,15,0,0,0,1.72-.57c.27-.13.55-.25.82-.39,0,0,0,0,0,0a8.43,8.43,0,0,0,1.3-.75l.28-.18a11.25,11.25,0,0,0,1.16-.93c.19-.19.39-.38.58-.58a13.31,13.31,0,0,0,1.27-1.54,12.64,12.64,0,0,0,1-1.87c.12-.25.23-.51.33-.77a8.22,8.22,0,0,0,.35-1.06.42.42,0,0,0,0-.16c-1,7.5-2.12,13.7,2.18,18.09a2.78,2.78,0,0,0,1.8.53c3.31-.33,5-3.64,4.84-9.48a11.51,11.51,0,0,0,.36,1.18h0a9.38,9.38,0,0,0,.84,1.64,9.16,9.16,0,0,0,1,1.28,8.64,8.64,0,0,0,2.23,1.66,8.35,8.35,0,0,0,1.38.57c.28.08.55.16.84.22l.18,0a2,2,0,0,0,.35.06l.12,0,.33,0h.25l.54,0h0l.41,0,.39,0,.29,0s0,0,0,0l.19,0h0a.76.76,0,0,1,.16,0l.12,0c.15,0,.3-.06.44-.09Z"/><path class="cls-4" d="M60.6,33.6a3.19,3.19,0,0,0-2-.71,3.1,3.1,0,0,0-.69.08l1.45-.43C59.74,32.85,60.17,33.22,60.6,33.6Z"/><path class="cls-5" d="M43,12.65s0,0,0,.07c-.1,1.12-.25,2.3-.42,3.52a.42.42,0,0,1,0,.16,8.22,8.22,0,0,1-.35,1.06q-.15.39-.33.78a13.07,13.07,0,0,1-1,1.86,13.31,13.31,0,0,1-1.27,1.54c-.19.2-.39.39-.58.58a11.64,11.64,0,0,1-1.17.93l-.27.18a9.22,9.22,0,0,1-1.29.75l0,0-.84.39a13.85,13.85,0,0,1-1.72.57l-.38.09h0c-.13.08-1.65.89-2.63,1.41A33.2,33.2,0,0,0,27.33,25c-.74-.31-1.53-.62-2.36-.92L43,12.65Z"/><path class="cls-6" d="M62.87,31.56h0s0,0,0,0l-.2.07h0l-.16.06-.12,0h0l-.11,0h0a0,0,0,0,0,0,0h0l0,0h0l-.63.18.55-.16-.12,0c-.14,0-.29.07-.44.09l-.12,0a.76.76,0,0,0-.16,0h0l-.19,0s0,0,0,0l-.29,0-.39,0-.41,0h0l-.54,0H59l-.33,0-.12,0a2,2,0,0,1-.35-.06l-.18,0c-.29-.06-.56-.14-.84-.22a8.35,8.35,0,0,1-1.38-.57,8.64,8.64,0,0,1-2.23-1.66,9.16,9.16,0,0,1-1-1.28,9.38,9.38,0,0,1-.84-1.64h0a11.51,11.51,0,0,1-.36-1.18h0s0,0,0,0a23.9,23.9,0,0,0-.18-2.54Z"/><path class="cls-7" d="M81.12,54.43A8.53,8.53,0,0,1,80.37,58a6.42,6.42,0,0,1-.47.9,8.34,8.34,0,0,1-1.31,1.69,8.68,8.68,0,0,1-8.37,2.24c-.3-.08-.6-.18-.9-.29A8.85,8.85,0,0,1,66.76,61a5.23,5.23,0,0,1-.42-.39,9.42,9.42,0,0,1-.79-.9,8.61,8.61,0,0,1-1.74-4.75,8.65,8.65,0,0,1,1.34-5.12c0,.06-.09.12-.13.19a13.11,13.11,0,0,0,.77-7.33A13.27,13.27,0,0,0,62,34.87c-.25-.25-.69-.66-1.18-1.1l-.09-.07a.52.52,0,0,0-.11-.1,3.19,3.19,0,0,0-2-.71,3.1,3.1,0,0,0-.69.08l1.45-.43L61.44,32l.55-.16.08,0h0l0,0h0l.05,0h0l.06,0h0l.12,0,.16-.06h0l.2-.07h0c.17,0,.34-.13.52-.2l.32-.16,0,0,.13-.07,0,0a7.45,7.45,0,0,0,.71-.43l.24-.17a7.49,7.49,0,0,0,.82-.67h0a8.27,8.27,0,0,0,.71-.74l.18-.22h0l0,0h0l.11-.13.06-.07,0-.07,0,0,0-.06.1-.15,0,0,.07-.11a2.46,2.46,0,0,0,.17-.27,13,13,0,0,0-.76,3.69,14,14,0,0,0,2.35,9.76A12.79,12.79,0,0,0,70.28,43a11.53,11.53,0,0,0,4.41,3.07l-.16,0a8.51,8.51,0,0,1,3.21,1.54,9.72,9.72,0,0,1,.85.75l.32.33c.14.15.27.31.4.48s.32.44.47.67A8.6,8.6,0,0,1,81.12,54.43Z"/><path class="cls-8" d="M34,25c-.14.07-2.39,1.07-3.37,1.59l-.84.46a9.32,9.32,0,0,0-.9.65,1.43,1.43,0,0,0-.22.15l0,0a19,19,0,0,0-5.77,22.8c-.08-.11-.15-.22-.23-.32a2.71,2.71,0,0,0-.24-.35h0L22,49.55l-.19-.22a1.46,1.46,0,0,0-.16-.19l-.2-.22c-.19-.2-.38-.4-.58-.59,0,0,0,0-.07,0h0l-.18-.16a12.43,12.43,0,0,0-3-2c-.1-.06-.22-.1-.32-.15a9.49,9.49,0,0,0-1.16-.43l-.6-.18L15,45.23l-.06,0c-.41-.08-.82-.15-1.24-.19S12.83,45,12.39,45a12.59,12.59,0,0,0-3.15.41,17.6,17.6,0,0,0,8.26-6.69,18.92,18.92,0,0,0,3.64-11.21A19,19,0,0,0,21,24.34a19.82,19.82,0,0,0-1.15-5.06l.27.44c.08.13.16.25.25.37v0c.08.13.18.25.26.37l.25.31c.25.3.5.59.76.85s.41.42.63.62.28.25.42.36l.42.33a1.88,1.88,0,0,0,.23.16,6.58,6.58,0,0,0,.54.38l.17.11.38.22c.17.1.33.18.5.26s.65.32,1,.46a.38.38,0,0,0,.13,0s0,0,0,0l.53.19h0a2.14,2.14,0,0,0,.27.09,1.17,1.17,0,0,0,.2.06l.21.06c.27.07.55.14.82.19a4.1,4.1,0,0,0,.7.12c.14,0,.28,0,.42.06s.26,0,.39,0h.12l.35,0a13.14,13.14,0,0,0,1.54,0l.56-.06.54-.09h0C32.93,25.21,33.82,25,34,25Z"/><path class="cls-9" d="M63.89,53.17a8.68,8.68,0,0,1,1.76-4.09c.08-.11.17-.21.26-.32a6.17,6.17,0,0,1,.43-.46l.32-.31a8.9,8.9,0,0,1,2.51-1.58h0l.12,0h0a8.68,8.68,0,0,1,8.42,1.21,9.78,9.78,0,0,1,.85.74l.32.34c.14.15.27.31.4.48s.32.44.47.67a8.63,8.63,0,0,1,1.35,4.64A8.54,8.54,0,0,1,80.37,58a6.42,6.42,0,0,1-.47.9,8.34,8.34,0,0,1-1.31,1.69,8.68,8.68,0,0,1-8.37,2.24,9.24,9.24,0,0,1-.89-.29A8.64,8.64,0,0,1,66.76,61l-.42-.39a9.42,9.42,0,0,1-.79-.9,8.61,8.61,0,0,1-1.74-4.76A9.16,9.16,0,0,1,63.89,53.17Z"/><path class="cls-10" d="M24.78,57.34a6.27,6.27,0,0,1,0,.76,12.18,12.18,0,0,1-2.57,6.84,11.17,11.17,0,0,1-1.52,1.63,12.32,12.32,0,0,1-8.26,3.17A12.51,12.51,0,0,1,8.14,69h0c-.36-.14-.71-.29-1.06-.45a1.65,1.65,0,0,1-.26-.14,12.32,12.32,0,0,1-1.6-1L5,67.25a12.93,12.93,0,0,1-1.88-1.74l-.16-.19A12.37,12.37,0,0,1,1.25,51.93a12.59,12.59,0,0,1,1.18-2,14,14,0,0,1,1.24-1.42,12.12,12.12,0,0,1,3.46-2.42L7.44,46l.45-.18h0a12,12,0,0,1,1.32-.43h0A12.61,12.61,0,0,1,12.4,45a12.34,12.34,0,0,1,4.94,1l.32.15a12.43,12.43,0,0,1,3,2l.18.17s0,0,.07,0A11.94,11.94,0,0,1,22,49.56a11,11,0,0,1,.8,1.1,12.28,12.28,0,0,1,1.94,6.25C24.78,57.06,24.78,57.2,24.78,57.34Z"/><path class="cls-11" d="M43,12.65v.07a11.49,11.49,0,0,1-.3,3,4.05,4.05,0,0,1-.12.47.42.42,0,0,1,0,.16,8.22,8.22,0,0,1-.35,1.06q-.15.39-.33.78a13.07,13.07,0,0,1-1,1.86,13.31,13.31,0,0,1-1.27,1.54c-.19.2-.39.39-.58.58a11.64,11.64,0,0,1-1.17.93l-.27.18a9.22,9.22,0,0,1-1.29.75l0,0-.84.39a13.85,13.85,0,0,1-1.72.57l-.38.09h0l-.43.09h0l-.54.09-.56.06a13.14,13.14,0,0,1-1.54,0l-.35,0h-.12c-.13,0-.26,0-.39,0s-.28,0-.42-.06a4.1,4.1,0,0,1-.7-.12c-.27-.05-.55-.12-.82-.19l-.21-.06a1.17,1.17,0,0,1-.2-.06,2.14,2.14,0,0,1-.27-.09h0l-.53-.19s0,0,0,0a.38.38,0,0,1-.13,0c-.32-.14-.66-.29-1-.46l-.5-.26-.55-.33c-.18-.12-.37-.25-.54-.38a1.88,1.88,0,0,1-.23-.16l-.42-.33c-.14-.11-.28-.24-.42-.36s-.43-.4-.63-.62-.51-.55-.76-.85l-.25-.31c-.08-.12-.18-.24-.26-.37v0c-.09-.12-.17-.24-.25-.37l-.27-.44a14.36,14.36,0,0,1-.73-1.47c-.17-.41-.31-.84-.44-1.25a13.91,13.91,0,0,1-.33-1.42,12.33,12.33,0,0,1,.29-5.45l0-.11h0a.22.22,0,0,1,0-.08c.06-.22.13-.43.2-.63s.25-.59.37-.89c0,0,0,0,0,0s.06-.16.09-.22.18-.38.28-.58a4.6,4.6,0,0,0,.25-.44h0a11,11,0,0,1,1.3-1.8c.15-.19.32-.36.48-.53a12.57,12.57,0,0,1,4.11-2.77,12.28,12.28,0,0,1,8.24-.45,5.69,5.69,0,0,1,.93.32h0c.38.15.74.31,1.09.49a2.1,2.1,0,0,1,.3.15,11.94,11.94,0,0,1,2.2,1.48A12.29,12.29,0,0,1,43,12.65Z"/><path class="cls-12" d="M68.46,24.11a8.47,8.47,0,0,1-.88,3.21,5.86,5.86,0,0,1-.3.55,2.46,2.46,0,0,1-.17.27c-.08.13-.15.24-.24.36l0,0,0,.07-.06.07a1.13,1.13,0,0,1-.1.13h0l0,0h0l-.18.22a8.27,8.27,0,0,1-.71.74h0a7.49,7.49,0,0,1-.82.67l-.24.17a7.45,7.45,0,0,1-.71.43l0,0-.13.07,0,0-.32.16c-.18.07-.35.15-.52.2h0l-.2.07h0l-.16.06-.12,0h0l-.06,0h-.07a0,0,0,0,0,0,0h0l0,0h0l-.08,0-.12,0c-.14,0-.29.07-.44.09l-.12,0a.76.76,0,0,0-.16,0h0l-.19,0s0,0,0,0l-.29,0-.39,0-.41,0h0l-.54,0H59l-.33,0-.12,0a2,2,0,0,1-.35-.06l-.18,0c-.29-.06-.56-.14-.84-.22a8.35,8.35,0,0,1-1.38-.57,8.64,8.64,0,0,1-2.23-1.66,9.16,9.16,0,0,1-1-1.28,9.38,9.38,0,0,1-.84-1.64h0a11.51,11.51,0,0,1-.36-1.18h0s0,0,0,0a8.92,8.92,0,0,1-.18-2.54,8.64,8.64,0,0,1,2.28-5.23,8.47,8.47,0,0,1,1-.95h0a8.65,8.65,0,0,1,11.31.57,5.32,5.32,0,0,1,.47.48,0,0,0,0,0,0,0,8.36,8.36,0,0,1,.57.73h0A8.62,8.62,0,0,1,68.46,24.11Z"/></g></g></svg>