<svg xmlns="http://www.w3.org/2000/svg" viewBox="0 0 269.29 70.05"><defs><style>.cls-1{fill:#fff;}</style></defs><g id="Capa_2" data-name="Capa 2"><g id="Layer_1" data-name="Layer 1"><path class="cls-1" d="M99.09,33.76H92.68V.66h8.57l8.41,24.08L118.05.66h8.57v33.1h-6.39l.23-24-8.37,24h-4.88l-8.39-24Z"/><path class="cls-1" d="M130.67,17.14A17.66,17.66,0,0,1,131.4,12a16.26,16.26,0,0,1,2.16-4.53,17,17,0,0,1,6.16-5.52A17.22,17.22,0,0,1,147.81,0a16.37,16.37,0,0,1,6.36,1.27,17.06,17.06,0,0,1,5.47,3.66,17.33,17.33,0,0,1,3.77,5.57,16.77,16.77,0,0,1,1.3,6.51,18.19,18.19,0,0,1-1.22,6.66,16.22,16.22,0,0,1-3.58,5.52,16.38,16.38,0,0,1-5.56,3.88,16.73,16.73,0,0,1-6.63,1.35,17.31,17.31,0,0,1-6.82-1.32,15.76,15.76,0,0,1-5.52-3.91,16.87,16.87,0,0,1-3.52-5.51A18,18,0,0,1,130.67,17.14Zm6.8-.22a11,11,0,0,0,.7,4,10.72,10.72,0,0,0,2.09,3.37,10.93,10.93,0,0,0,3.46,2.56,9.37,9.37,0,0,0,4,.9,9.63,9.63,0,0,0,7.29-3.1,10.74,10.74,0,0,0,2.94-7.7,9.9,9.9,0,0,0-3-7.22,9.67,9.67,0,0,0-7.13-3,10.09,10.09,0,0,0-7.37,3A9.77,9.77,0,0,0,137.47,16.92Z"/><path class="cls-1" d="M185.58,33.76h-16.8V.66h6.41V27.94h10.39Z"/><path class="cls-1" d="M200.52,33.76H189.26V.66h11.07a23.14,23.14,0,0,1,7.21.91,13,13,0,0,1,4.91,3.05,14.8,14.8,0,0,1,3.55,5.5,20.69,20.69,0,0,1,1.2,7.25,18.65,18.65,0,0,1-1.68,8.06,15,15,0,0,1-4.89,5.86,11.43,11.43,0,0,1-4.07,1.9A25.53,25.53,0,0,1,200.52,33.76Zm-.41-5.68q5.38,0,7.93-2.64t2.55-8.25q0-5.16-2.79-8T200,6.3h-4.22V28.08Z"/><path class="cls-1" d="M239,33.76H221.16V.66H239V6.48H227.57V14H239v5.73H227.57v8.18H239Z"/><path class="cls-1" d="M255.33,22.12l-6.71,11.64h-7.29l10.61-16.71L241.6.66h7.3l6.43,11.5L261.72.66H269L258.74,17.05l10.55,16.71H262Z"/><path class="cls-1" d="M115.55,55.88s-.08,0-.08-.08V47.7a.07.07,0,0,1,.08-.08h.39a.07.07,0,0,1,.08.08v8.1c0,.06,0,.08-.08.08Z"/><path class="cls-1" d="M131.56,55.8c0,.06,0,.08-.08.08h0a.06.06,0,0,1-.06,0l-5.07-6.76V55.8c0,.06,0,.08-.08.08h-.38s-.08,0-.08-.08V47.72c0-.06,0-.09.08-.09h0a.06.06,0,0,1,.06,0L131,54.47V47.71c0-.05,0-.08.09-.08h.38c.06,0,.08,0,.08.08Z"/><path class="cls-1" d="M147.11,55.8c0,.06,0,.08-.08.08h0a.09.09,0,0,1-.07,0l-5.06-6.76V55.8c0,.06,0,.08-.08.08h-.38c-.06,0-.09,0-.09-.08V47.72a.08.08,0,0,1,.09-.09h0a.09.09,0,0,1,.06,0l5.09,6.81V47.71a.07.07,0,0,1,.08-.08H147a.07.07,0,0,1,.08.08Z"/><path class="cls-1" d="M158.89,55.56a4.12,4.12,0,0,1-1.31-6.73,4,4,0,0,1,1.31-.88,4.09,4.09,0,0,1,3.22,0,4.07,4.07,0,0,1,2.2,2.19,4.09,4.09,0,0,1,0,3.22,4.14,4.14,0,0,1-.88,1.31,4.33,4.33,0,0,1-1.32.89,4.21,4.21,0,0,1-3.22,0Zm.22-7.11a3.5,3.5,0,0,0-1.14.76,3.69,3.69,0,0,0-.77,1.15,3.49,3.49,0,0,0-.28,1.39,3.56,3.56,0,0,0,2.19,3.3,3.5,3.5,0,0,0,1.39.29,3.55,3.55,0,0,0,1.4-.29,3.5,3.5,0,0,0,1.14-.76,3.59,3.59,0,0,0,.77-3.93,3.87,3.87,0,0,0-.77-1.15,3.61,3.61,0,0,0-3.93-.76Z"/><path class="cls-1" d="M176.5,55.83s0,.05-.08.05H176s-.06,0-.07-.05l-2.79-8.11a.08.08,0,0,1,0-.07.09.09,0,0,1,.07,0h.41a.07.07,0,0,1,.07.05l2.53,7.38,2.54-7.38a.07.07,0,0,1,.07-.05h.41a.11.11,0,0,1,.07,0,.08.08,0,0,1,0,.07Z"/><path class="cls-1" d="M190,47.62a.07.07,0,0,1,.07,0l3.37,8.11a.08.08,0,0,1,0,.08.08.08,0,0,1-.07,0h-.41a.07.07,0,0,1-.08-.05l-1.4-3.38H188l-1.4,3.38a.07.07,0,0,1-.08.05h-.41a.09.09,0,0,1-.07,0,.08.08,0,0,1,0-.08l3.37-8.11a.08.08,0,0,1,.07,0Zm1.25,4.29-1.5-3.61-1.5,3.61Z"/><path class="cls-1" d="M205.37,47.62a.07.07,0,0,1,.08.08v.39a.07.07,0,0,1-.08.08h-2.32V55.8c0,.06,0,.08-.08.08h-.39c-.05,0-.08,0-.08-.08V48.17h-2.32a.07.07,0,0,1-.08-.08V47.7a.07.07,0,0,1,.08-.08Z"/><path class="cls-1" d="M214,55.88c-.06,0-.09,0-.09-.08V47.7c0-.05,0-.08.09-.08h.38c.06,0,.08,0,.08.08v8.1c0,.06,0,.08-.08.08Z"/><path class="cls-1" d="M230,55.8c0,.06,0,.08-.08.08h0a.09.09,0,0,1-.07,0l-5.06-6.76V55.8c0,.06,0,.08-.08.08h-.39c-.05,0-.08,0-.08-.08V47.72c0-.06,0-.09.08-.09h0a.09.09,0,0,1,.06,0l5.09,6.81V47.71a.07.07,0,0,1,.08-.08H230a.07.07,0,0,1,.08.08Z"/><path class="cls-1" d="M241.94,55.58a3.9,3.9,0,0,1-1.42-.95,4.09,4.09,0,0,1-1.15-3.24,4.14,4.14,0,0,1,3.85-3.75,4.09,4.09,0,0,1,1.71.25,4.33,4.33,0,0,1,1.46.93.09.09,0,0,1,0,.12l-.28.27a.09.09,0,0,1-.12,0,3.36,3.36,0,0,0-2.49-1,3.58,3.58,0,0,0-2.64,6,3.58,3.58,0,0,0,5.1.14v-1.9h-1.73s-.08,0-.08-.08V52c0-.06,0-.08.08-.08h2.19c.05,0,.08,0,.08.08v2.56a.08.08,0,0,1,0,.05h0a4.46,4.46,0,0,1-1.27.9,4,4,0,0,1-1.5.38A4.06,4.06,0,0,1,241.94,55.58Z"/><path class="cls-1" d="M137.21,70s0,.07-.08.07h-.42a.07.07,0,0,1-.06,0l-2.43-3.77L131.79,70a.09.09,0,0,1-.07,0h-.43s-.07,0-.08-.07l-.55-8.1c0-.06,0-.08.08-.08h.39c.05,0,.07,0,.07.07l.5,7.28,2.41-3.74a.09.09,0,0,1,.07,0h.08a.08.08,0,0,1,.07,0l2.39,3.72.5-7.26s0-.07.08-.07h.39c.05,0,.08,0,.08.08Z"/><path class="cls-1" d="M147.4,70.05a.07.07,0,0,1-.08-.08v-8.1a.07.07,0,0,1,.08-.08h.39a.07.07,0,0,1,.08.08V70a.07.07,0,0,1-.08.08Z"/><path class="cls-1" d="M161.69,61.79a.07.07,0,0,1,.08.08v.39a.07.07,0,0,1-.08.08h-2.33V70s0,.08-.08.08h-.38a.07.07,0,0,1-.08-.08V62.34H156.5a.07.07,0,0,1-.08-.08v-.39a.07.07,0,0,1,.08-.08Z"/><path class="cls-1" d="M170.33,70a.07.07,0,0,1-.08-.08V61.87a.07.07,0,0,1,.08-.08h.39c.05,0,.07,0,.07.08V70c0,.05,0,.08-.07.08Zm5.72-3.85h-5.8v-.55h5.8Zm-.47,3.86a.07.07,0,0,1-.08-.08V61.88a.07.07,0,0,1,.08-.08H176a.07.07,0,0,1,.08.08V70a.07.07,0,0,1-.08.08Z"/><path class="cls-1" d="M200.21,61.78a.07.07,0,0,1,.07,0,.06.06,0,0,1,0,.08l-2.35,3.74-.05.08V70a.07.07,0,0,1-.08.08h-.39s-.07,0-.07-.08V65.71l-2.4-3.81a.06.06,0,0,1,0-.08.07.07,0,0,1,.07,0h.45a.08.08,0,0,1,.07,0l2.08,3.31,2.08-3.31a.08.08,0,0,1,.07,0Z"/><path class="cls-1" d="M210.55,69.73a4.22,4.22,0,0,1-2.2-2.2,4.21,4.21,0,0,1,0-3.22,4.33,4.33,0,0,1,.89-1.32,4.14,4.14,0,0,1,1.31-.88,4.09,4.09,0,0,1,3.22,0,4.14,4.14,0,0,1,1.31.88,4.33,4.33,0,0,1,.89,1.32,4.09,4.09,0,0,1,0,3.22,4.16,4.16,0,0,1-5.42,2.2Zm.22-7.12a3.7,3.7,0,0,0-1.14.77,3.56,3.56,0,0,0-1,2.54,3.49,3.49,0,0,0,.28,1.39,3.62,3.62,0,0,0,1.91,1.91,3.49,3.49,0,0,0,1.39.28,3.56,3.56,0,0,0,3.3-2.19,3.5,3.5,0,0,0,.29-1.39,3.55,3.55,0,0,0-.29-1.4,3.5,3.5,0,0,0-.76-1.14,3.59,3.59,0,0,0-3.93-.77Z"/><path class="cls-1" d="M226.32,69.2a2.71,2.71,0,0,1-.76-1.92v-5.4c0-.06,0-.08.08-.08H226c.06,0,.08,0,.08.08v5.41a2.17,2.17,0,0,0,.6,1.53,2.14,2.14,0,0,0,3.07.08,2.1,2.1,0,0,0,.66-1.56V61.88c0-.06,0-.08.08-.08h.39s.08,0,.08.08v5.46a2.72,2.72,0,0,1-2.79,2.71A2.6,2.6,0,0,1,226.32,69.2Z"/><path class="cls-1" d="M79.78,49.79a6.2,6.2,0,0,0-.47-.67c-.13-.17-.26-.33-.4-.48l-.32-.34a8.34,8.34,0,0,0-.85-.74A8.69,8.69,0,0,0,74.53,46l.17,0A11.78,11.78,0,0,1,70.28,43a12.16,12.16,0,0,1-1.41-1.66,14,14,0,0,1-2.34-9.75,12.49,12.49,0,0,1,.76-3.7c.1-.17.2-.35.29-.54a8.63,8.63,0,0,0-.71-8.91h0a6.53,6.53,0,0,0-.58-.72h0a5.38,5.38,0,0,0-.47-.49,8.69,8.69,0,0,0-11.32-.57h0a7.74,7.74,0,0,0-1,.95,8.62,8.62,0,0,0-2.09,7.77v0h0c.14,5.84-1.53,9.15-4.84,9.48a2.78,2.78,0,0,1-1.8-.54c-4.3-4.38-3.15-10.59-2.17-18.09l.12-.46a12,12,0,0,0,.29-3s0-.05,0-.08h0A12.45,12.45,0,0,0,42,8.29a12.32,12.32,0,0,0-3.44-4.7A12.52,12.52,0,0,0,36.4,2.1L36.1,2c-.35-.18-.71-.34-1.09-.49h0a8,8,0,0,0-.94-.32A12.44,12.44,0,0,0,21.73,4.38c-.16.17-.33.34-.48.52A11.43,11.43,0,0,0,20,6.7h0a3.79,3.79,0,0,1-.25.45l-.29.57c0,.07-.06.14-.08.22V8c-.11.3-.24.59-.37.88s-.14.42-.2.64a.24.24,0,0,0,0,.07h0l0,.11a12.33,12.33,0,0,0-.29,5.45c.09.47.19.94.33,1.42s.27.83.44,1.25a14.36,14.36,0,0,0,.73,1.47A19.63,19.63,0,0,1,21,24.34a20.17,20.17,0,0,1,.11,3.12A18.92,18.92,0,0,1,17.5,38.67a17.6,17.6,0,0,1-8.26,6.69h0a9.83,9.83,0,0,0-1.33.43h0L7.44,46c-.1.05-.21.09-.31.15a12.12,12.12,0,0,0-3.46,2.42A12.87,12.87,0,0,0,2.43,50a13,13,0,0,0-1.19,2A12.39,12.39,0,0,0,2.91,65.31l.16.2a12.26,12.26,0,0,0,1.87,1.73l.24.19a12.32,12.32,0,0,0,1.6,1l.26.14c.35.16.7.31,1.06.45h0a12.51,12.51,0,0,0,4.26.75,12.32,12.32,0,0,0,8.26-3.17,12.45,12.45,0,0,0,1.53-1.63,12.24,12.24,0,0,0,2.56-6.84,6.35,6.35,0,0,0,0-.76c0-.14,0-.29,0-.43a12.34,12.34,0,0,0-.91-4.27,12.91,12.91,0,0,0-1-2h0a18.9,18.9,0,0,1-1.47-10.23A19,19,0,0,1,28.6,27.85s0,0,0,0a1.16,1.16,0,0,1,.21-.16,3.16,3.16,0,0,1,3.3-.16.41.41,0,0,1,.11.07,2.48,2.48,0,0,1,.4.26h0A14.18,14.18,0,0,1,39,37.78a6.53,6.53,0,0,0,6.46,5.45,5.66,5.66,0,0,0,.82-.06,5.9,5.9,0,0,0,4.27-3.36,10.65,10.65,0,0,1,7-6.73l.15-.06.2,0h0a3.1,3.1,0,0,1,.69-.08,3.22,3.22,0,0,1,2,.7l.12.1a.6.6,0,0,1,.08.08c.49.43.93.85,1.19,1.09a13.31,13.31,0,0,1,3.8,7.78A13.14,13.14,0,0,1,65,50c0-.07.09-.13.13-.19a8.57,8.57,0,0,0-1.26,3.38,9.08,9.08,0,0,0-.08,1.73,8.55,8.55,0,0,0,1.75,4.76,7.2,7.2,0,0,0,.78.89c.14.14.27.27.42.4a8.77,8.77,0,0,0,2.57,1.56,9.24,9.24,0,0,0,.89.29,8.66,8.66,0,0,0,8.37-2.25,8.48,8.48,0,0,0,1.32-1.69,7.49,7.49,0,0,0,.46-.89,8.64,8.64,0,0,0-.59-8.18Z"/></g></g></svg>