<svg xmlns="http://www.w3.org/2000/svg" xmlns:xlink="http://www.w3.org/1999/xlink" viewBox="0 0 255.12 266.27"><defs><style>.cls-1{fill:#fff;}.cls-2{fill:url(#linear-gradient);}.cls-3{fill:url(#linear-gradient-2);}.cls-4{fill:url(#linear-gradient-3);}.cls-5{fill:url(#linear-gradient-4);}.cls-6{fill:url(#linear-gradient-5);}.cls-7{fill:url(#linear-gradient-6);}.cls-8{fill:url(#radial-gradient);}.cls-9{fill:url(#radial-gradient-2);}.cls-10{fill:url(#radial-gradient-3);}.cls-11{fill:url(#radial-gradient-4);}</style><linearGradient id="linear-gradient" x1="117.27" y1="55.83" x2="161.07" y2="63.25" gradientUnits="userSpaceOnUse"><stop offset="0" stop-color="#063f51"/><stop offset="1" stop-color="#1c449b"/></linearGradient><linearGradient id="linear-gradient-2" x1="163.96" y1="64.73" x2="166.75" y2="66.39" gradientUnits="userSpaceOnUse"><stop offset="0" stop-color="#006271"/><stop offset="1" stop-color="#242278"/></linearGradient><linearGradient id="linear-gradient-3" x1="113.79" y1="35.47" x2="121.4" y2="39.65" gradientUnits="userSpaceOnUse"><stop offset="0" stop-color="#046a7c"/><stop offset="1" stop-color="#2b348f"/></linearGradient><linearGradient id="linear-gradient-4" x1="156.88" y1="54.88" x2="166.06" y2="59.93" xlink:href="#linear-gradient-3"/><linearGradient id="linear-gradient-5" x1="164.95" y1="67.78" x2="186.43" y2="95.72" gradientUnits="userSpaceOnUse"><stop offset="0" stop-color="#101042"/><stop offset="0.86" stop-color="#ac1d26"/><stop offset="0.94" stop-color="#da1f26"/><stop offset="1" stop-color="#ed2d29"/></linearGradient><linearGradient id="linear-gradient-6" x1="97.72" y1="48.37" x2="80.79" y2="91.1" gradientUnits="userSpaceOnUse"><stop offset="0" stop-color="#007d83"/><stop offset="1" stop-color="#2c0f38"/></linearGradient><radialGradient id="radial-gradient" cx="2181.35" cy="2171.87" r="21.54" gradientTransform="translate(2378.15 2272.02) rotate(180)" gradientUnits="userSpaceOnUse"><stop offset="0" stop-color="#f7971d"/><stop offset="0.11" stop-color="#f16324"/><stop offset="0.44" stop-color="#eb2027"/><stop offset="0.54" stop-color="#e52027"/><stop offset="0.67" stop-color="#d21f26"/><stop offset="0.82" stop-color="#b51e25"/><stop offset="0.99" stop-color="#8c1c24"/><stop offset="0.99" stop-color="#8b1c24"/></radialGradient><radialGradient id="radial-gradient-2" cx="80.35" cy="101.76" r="37.24" gradientUnits="userSpaceOnUse"><stop offset="0" stop-color="#c87fb5"/><stop offset="0.12" stop-color="#a956a0"/><stop offset="0.22" stop-color="#934393"/><stop offset="0.44" stop-color="#85298f"/><stop offset="0.59" stop-color="#7f288a"/><stop offset="0.8" stop-color="#6c247b"/><stop offset="1" stop-color="#541f67"/></radialGradient><radialGradient id="radial-gradient-3" cx="114.77" cy="12.63" r="32.8" gradientUnits="userSpaceOnUse"><stop offset="0" stop-color="#b0ddd5"/><stop offset="0.16" stop-color="#59c4c9"/><stop offset="0.32" stop-color="#00b2ba"/><stop offset="0.78" stop-color="#00909d"/><stop offset="1" stop-color="#007d83"/></radialGradient><radialGradient id="radial-gradient-4" cx="173.38" cy="36.38" r="26.13" gradientUnits="userSpaceOnUse"><stop offset="0" stop-color="#46c3ed"/><stop offset="0" stop-color="#6fceef"/><stop offset="0.15" stop-color="#00a3e6"/><stop offset="0.26" stop-color="#009ade"/><stop offset="1" stop-color="#1c449b"/></radialGradient></defs><g id="Layer_2" data-name="Layer 2"><g id="Layer_1-2" data-name="Layer 1"><path class="cls-1" d="M9.26,213.85H0V166H12.38l12.15,34.78L36.65,166H49v47.82H39.8l.33-34.72L28.05,213.85H21L8.87,179.13Z"/><path class="cls-1" d="M54.88,189.84a25.73,25.73,0,0,1,1-7.44,23.89,23.89,0,0,1,3.12-6.55,24.53,24.53,0,0,1,8.9-8,24.82,24.82,0,0,1,11.69-2.8,23.55,23.55,0,0,1,9.18,1.84,24.35,24.35,0,0,1,7.9,5.28,25,25,0,0,1,5.45,8.05,24,24,0,0,1,1.87,9.39,26.27,26.27,0,0,1-1.75,9.63,23.43,23.43,0,0,1-5.18,8,23.76,23.76,0,0,1-8,5.6,24.16,24.16,0,0,1-9.57,2,25,25,0,0,1-9.85-1.91,23,23,0,0,1-8-5.64,24.42,24.42,0,0,1-5.08-8A25.69,25.69,0,0,1,54.88,189.84Zm9.82-.33a16,16,0,0,0,1,5.75,15.31,15.31,0,0,0,3,4.86,15.68,15.68,0,0,0,5,3.69,13.5,13.5,0,0,0,5.78,1.3A14,14,0,0,0,90,200.64a15.5,15.5,0,0,0,4.25-11.13A14.27,14.27,0,0,0,90,179.08a14,14,0,0,0-10.29-4.32,14.59,14.59,0,0,0-10.64,4.31A14.09,14.09,0,0,0,64.7,189.51Z"/><path class="cls-1" d="M134.19,213.85H109.92V166h9.26v39.41h15Z"/><path class="cls-1" d="M155.77,213.85H139.51V166h16a33.8,33.8,0,0,1,10.41,1.31,18.84,18.84,0,0,1,7.09,4.4,21.23,21.23,0,0,1,5.13,7.95,29.8,29.8,0,0,1,1.74,10.48,26.93,26.93,0,0,1-2.43,11.64,21.63,21.63,0,0,1-7.06,8.46,16.9,16.9,0,0,1-5.88,2.76A37.51,37.51,0,0,1,155.77,213.85Zm-.59-8.21q7.78,0,11.46-3.81t3.68-11.92q0-7.46-4-11.6t-11.25-4.14h-6.11v31.47Z"/><path class="cls-1" d="M211.41,213.85H185.59V166h25.82v8.41H194.85v10.9h16.56v8.28H194.85v11.82h16.56Z"/><path class="cls-1" d="M235,197l-9.69,16.82H214.72l15.34-24.14L215.12,166h10.54L235,182.65,244.18,166h10.54l-14.84,23.68,15.24,24.14H244.58Z"/><path class="cls-1" d="M33,245.8a.11.11,0,0,1-.12-.12V234c0-.07,0-.11.12-.11h.56a.1.1,0,0,1,.11.11v11.7c0,.08,0,.12-.11.12Z"/><path class="cls-1" d="M56.17,245.68a.11.11,0,0,1-.12.12H56a.11.11,0,0,1-.09-.05L48.58,236v9.7c0,.08,0,.12-.11.12h-.55a.11.11,0,0,1-.12-.12V234a.11.11,0,0,1,.12-.12h0a.09.09,0,0,1,.09.05l7.36,9.82V234a.1.1,0,0,1,.11-.11h.56c.08,0,.12,0,.12.11Z"/><path class="cls-1" d="M78.62,245.68c0,.08,0,.12-.11.12h-.06a.11.11,0,0,1-.09-.05L71,236v9.7a.11.11,0,0,1-.12.12h-.55c-.08,0-.11,0-.11-.12V234c0-.08,0-.12.11-.12h0a.09.09,0,0,1,.09.05l7.35,9.82V234c0-.07,0-.11.12-.11h.56a.1.1,0,0,1,.11.11Z"/><path class="cls-1" d="M95.65,245.33a6.06,6.06,0,0,1-1.9-1.28,6,6,0,0,1,0-8.44,6.06,6.06,0,0,1,1.9-1.28,6,6,0,1,1,0,11ZM96,235.06a5.11,5.11,0,0,0-1.65,1.11,4.9,4.9,0,0,0-1.11,1.65,5.13,5.13,0,0,0,0,4,4.9,4.9,0,0,0,1.11,1.65A5.2,5.2,0,0,0,98,245a5.21,5.21,0,0,0,2-.41,5.11,5.11,0,0,0,1.65-1.11,5,5,0,0,0,1.1-1.65,5.13,5.13,0,0,0,0-4,5,5,0,0,0-1.1-1.65,5.11,5.11,0,0,0-1.65-1.11,5.21,5.21,0,0,0-2-.41A5.12,5.12,0,0,0,96,235.06Z"/><path class="cls-1" d="M121.08,245.73a.11.11,0,0,1-.11.07h-.67a.11.11,0,0,1-.11-.07l-4-11.72a.12.12,0,0,1,0-.1.11.11,0,0,1,.09,0h.59a.1.1,0,0,1,.11.07l3.66,10.66,3.66-10.66a.1.1,0,0,1,.11-.07H125a.14.14,0,0,1,.1,0,.09.09,0,0,1,0,.1Z"/><path class="cls-1" d="M140.52,233.86a.12.12,0,0,1,.11.07l4.86,11.71a.11.11,0,0,1,0,.11.11.11,0,0,1-.1.05h-.6a.12.12,0,0,1-.11-.07l-2-4.88h-5l-2,4.88a.11.11,0,0,1-.11.07h-.6a.11.11,0,0,1-.11-.16l4.87-11.71a.1.1,0,0,1,.1-.07Zm1.81,6.2-2.17-5.21L138,240.06Z"/><path class="cls-1" d="M162.78,233.87c.08,0,.12,0,.12.11v.56a.11.11,0,0,1-.12.12h-3.35v11a.11.11,0,0,1-.12.12h-.56c-.07,0-.11,0-.11-.12v-11h-3.35a.11.11,0,0,1-.12-.12V234c0-.07,0-.11.12-.11Z"/><path class="cls-1" d="M175.27,245.8a.11.11,0,0,1-.12-.12V234c0-.07,0-.11.12-.11h.56c.08,0,.12,0,.12.11v11.7a.11.11,0,0,1-.12.12Z"/><path class="cls-1" d="M198.4,245.68a.11.11,0,0,1-.12.12h-.05a.14.14,0,0,1-.1-.05L190.82,236v9.7a.11.11,0,0,1-.12.12h-.55a.11.11,0,0,1-.12-.12V234a.11.11,0,0,1,.12-.12h0a.1.1,0,0,1,.09.05l7.35,9.82V234c0-.07,0-.11.12-.11h.55c.08,0,.12,0,.12.11Z"/><path class="cls-1" d="M215.61,245.37a6.12,6.12,0,0,1-2.06-1.38,6.21,6.21,0,0,1-1.32-2.11,5.91,5.91,0,0,1-.33-2.57,6,6,0,0,1,5.56-5.42A6,6,0,0,1,222,235.6a.1.1,0,0,1,0,.17l-.4.39a.12.12,0,0,1-.17,0,4.9,4.9,0,0,0-3.59-1.49,5,5,0,0,0-3.53,1.36,5,5,0,0,0-1.67,3.41,5.16,5.16,0,0,0,1.37,3.92,5.3,5.3,0,0,0,1.69,1.21,5.08,5.08,0,0,0,2.1.45,5,5,0,0,0,3.58-1.44v-2.75h-2.49a.11.11,0,0,1-.12-.12v-.56c0-.07,0-.11.12-.11h3.16c.08,0,.12,0,.12.11v3.7a.08.08,0,0,1,0,.08v0a6.3,6.3,0,0,1-1.83,1.3,5.94,5.94,0,0,1-4.71.12Z"/><path class="cls-1" d="M64.33,266.16c0,.07,0,.1-.11.1h-.61a.09.09,0,0,1-.09-.05L60,260.77l-3.5,5.44a.11.11,0,0,1-.1.05h-.62a.11.11,0,0,1-.12-.1l-.8-11.7a.11.11,0,0,1,.12-.12h.56a.1.1,0,0,1,.11.11L56.37,265l3.48-5.4a.12.12,0,0,1,.09-.05h.12a.1.1,0,0,1,.1.06l3.46,5.38.72-10.49c0-.07,0-.11.12-.11H65q.13,0,.12.12Z"/><path class="cls-1" d="M79,266.26a.1.1,0,0,1-.11-.11v-11.7c0-.08,0-.12.11-.12h.56a.11.11,0,0,1,.12.12v11.7c0,.07,0,.11-.12.11Z"/><path class="cls-1" d="M99.68,254.33a.11.11,0,0,1,.12.12V255c0,.07,0,.11-.12.11H96.33v11c0,.07,0,.11-.12.11h-.56c-.07,0-.1,0-.1-.11v-11H92.19c-.08,0-.12,0-.12-.11v-.56a.11.11,0,0,1,.12-.12Z"/><path class="cls-1" d="M112.17,266.25c-.07,0-.11,0-.11-.12V254.45c0-.08,0-.12.11-.12h.56c.07,0,.11,0,.11.12v11.68c0,.08,0,.12-.11.12Zm8.25-5.57h-8.36v-.79h8.36Zm-.66,5.58c-.08,0-.12,0-.12-.11V254.46c0-.07,0-.11.12-.11h.56c.07,0,.1,0,.1.11v11.69c0,.07,0,.11-.1.11Z"/><path class="cls-1" d="M155.33,254.31a.1.1,0,0,1,.1.06.09.09,0,0,1,0,.12l-3.39,5.4L152,260v6.14a.1.1,0,0,1-.11.11h-.56a.1.1,0,0,1-.11-.11V260l-3.46-5.5a.09.09,0,0,1,0-.12.1.1,0,0,1,.1-.06h.65a.11.11,0,0,1,.1.05l3,4.78,3-4.78a.11.11,0,0,1,.1-.05Z"/><path class="cls-1" d="M170.27,265.8a6.27,6.27,0,0,1-1.9-1.29,6.08,6.08,0,0,1-1.28-1.89,6,6,0,0,1,0-4.65,6.24,6.24,0,0,1,1.28-1.9,6,6,0,0,1,1.9-1.27,5.87,5.87,0,0,1,4.65,0,5.86,5.86,0,0,1,3.17,3.17,6,6,0,0,1,0,4.65,5.88,5.88,0,0,1-1.27,1.89,6.27,6.27,0,0,1-1.9,1.29,6.11,6.11,0,0,1-4.65,0Zm.31-10.28a5.15,5.15,0,0,0-3.16,4.77,5.2,5.2,0,0,0,.4,2,5.11,5.11,0,0,0,1.11,1.65,5.24,5.24,0,0,0,1.65,1.1,5.16,5.16,0,0,0,4,0,5.13,5.13,0,0,0,3.16-4.77,5.11,5.11,0,0,0-.4-2,5.27,5.27,0,0,0-1.11-1.65,5.11,5.11,0,0,0-1.65-1.11,5.16,5.16,0,0,0-4,0Z"/><path class="cls-1" d="M193.05,265a3.92,3.92,0,0,1-1.1-2.77v-7.81a.11.11,0,0,1,.12-.12h.55c.08,0,.11,0,.11.12v7.82a3.13,3.13,0,0,0,.87,2.21,3,3,0,0,0,2.14,1,3.14,3.14,0,0,0,3.25-3.13v-7.89c0-.08,0-.12.11-.12h.56c.07,0,.11,0,.11.12v7.89a3.79,3.79,0,0,1-1.18,2.81,3.88,3.88,0,0,1-5.54-.12Z"/><path class="cls-2" d="M170.76,62.92l-1.11.32c-1.36.37-2.77.71-4.19,1.08l-2.93.87-.44.11-.3.11c-5.41,1.85-10.67,5.1-14,13.58a11.85,11.85,0,0,1-8.59,6.78,13.8,13.8,0,0,1-1.68.11,13.19,13.19,0,0,1-13-11c-1.31-8-4.9-14.55-12.84-20.05v0a5,5,0,0,0-.79-.53,1.14,1.14,0,0,0-.23-.15,6.35,6.35,0,0,0-3.06-.78,6.28,6.28,0,0,0-3.59,1.11c.59-.47,1.19-.89,1.81-1.3l1.69-.92,5.32-2.84a0,0,0,0,1,0,0c.25,0,.51-.1.78-.17A27.63,27.63,0,0,0,117,48.08c.56-.26,1.12-.5,1.67-.79,0,0,0,0,0,0a19,19,0,0,0,2.62-1.52l.55-.37a21.94,21.94,0,0,0,2.34-1.86l1.18-1.18A25.33,25.33,0,0,0,128,39.22a24.25,24.25,0,0,0,2.12-3.76c.24-.51.47-1,.67-1.57a19,19,0,0,0,.71-2.13,1.59,1.59,0,0,0,.08-.33c-2,15.13-4.28,27.65,4.38,36.49A5.62,5.62,0,0,0,139.58,69c6.68-.66,10-7.35,9.77-19.13a19.38,19.38,0,0,0,.72,2.39h0a18.45,18.45,0,0,0,1.7,3.31,17.36,17.36,0,0,0,2.08,2.59,17.61,17.61,0,0,0,4.49,3.35,16.69,16.69,0,0,0,2.79,1.15c.55.16,1.11.31,1.68.43a2.29,2.29,0,0,0,.36.07c.23,0,.47.09.71.12l.25,0,.67.07h.28a.78.78,0,0,0,.22,0c.36,0,.72,0,1.08,0h0c.28,0,.56,0,.83,0l.79-.05.57-.07s0,0,0,0,.26,0,.39,0h.06a3,3,0,0,1,.32-.06l.25,0c.3-.05.59-.12.89-.19Z"/><path class="cls-3" d="M168,66.45a6.37,6.37,0,0,0-5.43-1.26l2.93-.87C166.22,64.94,167.1,65.68,168,66.45Z"/><path class="cls-4" d="M132.42,24.19s0,.1,0,.15c-.21,2.25-.51,4.64-.85,7.09a1.59,1.59,0,0,1-.08.33,17.88,17.88,0,0,1-.71,2.14c-.2.53-.42,1.05-.67,1.56A25,25,0,0,1,128,39.22a25.33,25.33,0,0,1-2.56,3.11c-.39.4-.8.79-1.18,1.18a22.06,22.06,0,0,1-2.35,1.86c-.17.13-.36.25-.55.38a19.89,19.89,0,0,1-2.61,1.51s0,0,0,0c-.55.29-1.12.53-1.68.79a25.18,25.18,0,0,1-3.47,1.15c-.27.07-.52.12-.78.17l0,0c-.29.15-3.34,1.79-5.33,2.84a62.88,62.88,0,0,0-6.56-3.15q-2.25-.95-4.78-1.85L132.41,24.2Z"/><path class="cls-5" d="M172.53,62.35h0s0,0,0,0l-.4.14h0l-.32.11a1,1,0,0,1-.23.08h0l-.23.07h-.06a.06.06,0,0,0-.05,0h-.08l-.08,0-.08,0-1.27.36,1.11-.32-.23.06c-.3.07-.59.14-.89.19l-.25,0a3,3,0,0,0-.32.06H169c-.13,0-.25,0-.39,0s0,0,0,0l-.57.07-.79.05c-.27,0-.55,0-.83,0h0c-.36,0-.72,0-1.08,0a.78.78,0,0,1-.22,0h-.28l-.67-.07-.25,0c-.24,0-.48-.07-.71-.12a2.29,2.29,0,0,1-.36-.07c-.57-.12-1.13-.27-1.68-.43a16.69,16.69,0,0,1-2.79-1.15,17.61,17.61,0,0,1-4.49-3.35,17.36,17.36,0,0,1-2.08-2.59,18.45,18.45,0,0,1-1.7-3.31h0a19.38,19.38,0,0,1-.72-2.39v0s0,0,0,0a46.21,46.21,0,0,0-.37-5.12Z"/><path class="cls-6" d="M209.36,108.47a17.32,17.32,0,0,1-1.52,7.14,15.52,15.52,0,0,1-.94,1.81,17.16,17.16,0,0,1-2.66,3.41,17.46,17.46,0,0,1-16.88,4.52,17.12,17.12,0,0,1-1.8-.58,17.4,17.4,0,0,1-5.18-3.15c-.3-.25-.57-.51-.85-.79A18.85,18.85,0,0,1,178,119a17.47,17.47,0,0,1-3.52-9.6,17.82,17.82,0,0,1,.16-3.5,17.56,17.56,0,0,1,2.54-6.82l-.25.38c2.19-4.65,2.17-9.79,1.54-14.79A26.74,26.74,0,0,0,170.75,69c-.51-.5-1.4-1.33-2.39-2.21l-.17-.15a1.43,1.43,0,0,0-.23-.2,6.37,6.37,0,0,0-5.43-1.26l2.93-.87c1.42-.37,2.83-.71,4.19-1.08l1.11-.32.16,0,.08,0,.08,0h.08l.11,0h.07l.14,0,0,0h0a1,1,0,0,0,.23-.08l.32-.11h0l.4-.14h0v0h0c.35-.12.69-.27,1-.41s.43-.2.65-.33a.12.12,0,0,0,.08,0l.26-.13.08,0a14,14,0,0,0,1.44-.86l.49-.34a16.45,16.45,0,0,0,1.65-1.35h0a20.32,20.32,0,0,0,1.44-1.5l.35-.44,0,0h0s0,0,0,0,0,0,0,0v0c.08-.08.15-.18.22-.26l.11-.15a1.21,1.21,0,0,0,.1-.14.25.25,0,0,0,0-.07.76.76,0,0,0,.08-.11l.21-.3a.24.24,0,0,0,.06-.09,1.37,1.37,0,0,0,.15-.21c.12-.18.23-.37.34-.56a25.58,25.58,0,0,0-1.53,7.46A28.18,28.18,0,0,0,184.64,82a26.12,26.12,0,0,0,2.84,3.35c2.84,2.84,5.36,4.92,8.91,6.2l-.33-.07a17.38,17.38,0,0,1,6.47,3.11,18.48,18.48,0,0,1,1.71,1.51l.65.67c.28.31.54.63.81,1s.65.88.94,1.35A17.36,17.36,0,0,1,209.36,108.47Z"/><path class="cls-7" d="M114.24,49c-.28.15-4.83,2.17-6.82,3.22l-1.68.92c-.62.41-1.22.84-1.81,1.3a3.72,3.72,0,0,0-.45.33s0,0-.06,0a38.41,38.41,0,0,0-11.65,46c-.15-.23-.3-.44-.46-.66a7.77,7.77,0,0,0-.48-.69s0,0,0,0c-.22-.28-.43-.56-.66-.84l-.38-.46a3.8,3.8,0,0,0-.33-.37c-.12-.15-.26-.3-.39-.45-.39-.41-.78-.8-1.18-1.19,0,0-.09-.08-.15-.11h0l-.36-.33a25.51,25.51,0,0,0-6-4c-.2-.11-.43-.2-.63-.29a20.63,20.63,0,0,0-2.35-.88c-.4-.13-.8-.25-1.22-.36L76,89.91a.28.28,0,0,1-.13,0,22.82,22.82,0,0,0-2.5-.38,23.1,23.1,0,0,0-2.64-.15,24.74,24.74,0,0,0-6.35.83c7.2-2.64,12.23-7.4,16.66-13.5a38.2,38.2,0,0,0,7.35-22.61,39.75,39.75,0,0,0-.23-6.29c-.57-3.67-.89-6.87-2.32-10.21.17.31.36.62.55.9s.32.49.5.73a.08.08,0,0,1,0,0c.17.26.36.51.54.75s.33.43.5.63c.5.61,1,1.18,1.52,1.72s.83.83,1.27,1.23c.28.24.57.51.86.74l.85.67a5.15,5.15,0,0,0,.45.32,11.12,11.12,0,0,0,1.09.75,2.41,2.41,0,0,0,.36.23,7.15,7.15,0,0,0,.76.44c.34.2.66.38,1,.54.65.33,1.32.64,2,.91a1.22,1.22,0,0,0,.27.09l0,0c.35.15.7.27,1.06.39h.06c.17.07.36.12.55.18a3.79,3.79,0,0,0,.4.12l.43.12c.55.15,1.1.28,1.64.39a11.54,11.54,0,0,0,1.41.24c.28,0,.58.08.86.11a6.65,6.65,0,0,0,.78.06l.25,0,.71,0a26.69,26.69,0,0,0,3.1-.08l1.13-.13,1.08-.18h.05C112.16,49.54,114,49.1,114.24,49Z"/><path class="cls-8" d="M174.6,105.93a17.37,17.37,0,0,1,3.55-8.24,8.34,8.34,0,0,1,.53-.65,12.34,12.34,0,0,1,.86-.92l.66-.64a17.52,17.52,0,0,1,5.05-3.18l.07,0a1.57,1.57,0,0,1,.23-.09h0a17.47,17.47,0,0,1,18.69,3.94c.22.22.44.45.64.67s.55.63.81,1a15.63,15.63,0,0,1,1,1.35,17.49,17.49,0,0,1,1.2,16.5,18.52,18.52,0,0,1-.95,1.82,17,17,0,0,1-2.65,3.4,17.47,17.47,0,0,1-16.88,4.53,18.92,18.92,0,0,1-1.8-.59,17.45,17.45,0,0,1-5.19-3.15c-.29-.25-.57-.51-.84-.79A18.85,18.85,0,0,1,178,119a17.37,17.37,0,0,1-3.52-9.6A17.82,17.82,0,0,1,174.6,105.93Z"/><path class="cls-9" d="M95.72,114.35a15.29,15.29,0,0,1-.06,1.53,24.6,24.6,0,0,1-5.19,13.8A23.93,23.93,0,0,1,87.4,133a25,25,0,0,1-25.25,4.87l-.08,0c-.73-.28-1.44-.58-2.14-.91l-.53-.27a25.19,25.19,0,0,1-3.23-1.95l-.47-.37a24.56,24.56,0,0,1-3.78-3.5l-.33-.38a25,25,0,0,1-3.35-27,24.42,24.42,0,0,1,2.39-4,26.22,26.22,0,0,1,2.5-2.87,24.61,24.61,0,0,1,7-4.88c.21-.11.43-.2.64-.3l.89-.36h0a21.87,21.87,0,0,1,2.67-.86,0,0,0,0,1,0,0,25.09,25.09,0,0,1,16.34,1.25c.21.1.43.19.63.3a25.22,25.22,0,0,1,6,4l.36.34a1.74,1.74,0,0,0,.14.12,24.17,24.17,0,0,1,2.29,2.46,25,25,0,0,1,1.6,2.22,23.07,23.07,0,0,1,2.08,4,24.36,24.36,0,0,1,1.83,8.61A6.33,6.33,0,0,1,95.72,114.35Z"/><path class="cls-10" d="M132.41,24.2v.14a24.28,24.28,0,0,1-.6,6.15c-.07.32-.15.63-.25.94a1.59,1.59,0,0,1-.08.33,17.88,17.88,0,0,1-.71,2.14c-.2.53-.42,1.05-.67,1.56A25,25,0,0,1,128,39.22a25.33,25.33,0,0,1-2.56,3.11c-.39.4-.8.79-1.18,1.18a22.06,22.06,0,0,1-2.35,1.86c-.17.13-.36.25-.55.38a19.89,19.89,0,0,1-2.61,1.51s0,0,0,0c-.55.29-1.12.53-1.68.79a25.18,25.18,0,0,1-3.47,1.15c-.27.07-.52.12-.78.17l0,0-.88.17h-.05l-1.08.18-1.13.13a26.69,26.69,0,0,1-3.1.08l-.71,0-.25,0a6.65,6.65,0,0,1-.78-.06c-.28,0-.58-.06-.86-.11a11.54,11.54,0,0,1-1.41-.24c-.54-.11-1.09-.24-1.64-.39l-.43-.12a3.79,3.79,0,0,1-.4-.12c-.19-.06-.38-.11-.55-.18h-.06c-.36-.12-.71-.24-1.06-.39l0,0a1.22,1.22,0,0,1-.27-.09c-.65-.27-1.32-.58-2-.91-.33-.17-.65-.35-1-.54s-.75-.44-1.12-.67-.74-.49-1.09-.75a5.15,5.15,0,0,1-.45-.32l-.85-.67c-.29-.23-.58-.5-.86-.74-.44-.4-.86-.8-1.27-1.23s-1-1.11-1.52-1.72c-.17-.2-.33-.41-.5-.63s-.37-.49-.54-.75a.08.08,0,0,0,0,0c-.18-.24-.34-.48-.5-.73s-.38-.59-.55-.9a26.3,26.3,0,0,1-1.47-3c-.34-.83-.63-1.69-.89-2.52s-.49-1.91-.67-2.87a24.93,24.93,0,0,1,.59-11c0-.08,0-.14,0-.22h0c0-.07,0-.14.07-.16.12-.43.26-.86.4-1.28.26-.59.51-1.18.74-1.78,0,0,0,0,0,0,0-.16.12-.31.17-.44.19-.41.38-.77.58-1.16s.33-.57.51-.9l0,0a23.47,23.47,0,0,1,2.63-3.63c.31-.38.64-.71,1-1.06a25.11,25.11,0,0,1,8.28-5.59A24.8,24.8,0,0,1,114.46,1a13.45,13.45,0,0,1,1.88.64h0a21.85,21.85,0,0,1,2.2,1l.6.31A24.82,24.82,0,0,1,130.52,15.4,25.24,25.24,0,0,1,132.41,24.2Z"/><path class="cls-11" d="M183.82,47.31A17.34,17.34,0,0,1,182,53.79c-.18.38-.39.74-.6,1.1-.11.19-.22.38-.34.56s-.32.48-.49.71a.25.25,0,0,0,0,.07,1.34,1.34,0,0,1-.11.14l-.11.15c-.07.08-.13.18-.21.26v0s0,0,0,0,0,0,0,0h0l0,0-.35.44a20.32,20.32,0,0,1-1.44,1.5h0a16.45,16.45,0,0,1-1.65,1.35l-.49.34a14,14,0,0,1-1.44.86l-.08,0-.26.13a.12.12,0,0,1-.08,0c-.22.13-.43.22-.65.33s-.69.29-1,.41v0h0l-.4.14h0l-.32.11a1,1,0,0,1-.23.08h0l0,0-.14,0h-.13a.06.06,0,0,0-.05,0h-.08l-.08,0-.08,0-.16,0-.23.06c-.3.07-.59.14-.89.19l-.25,0a3,3,0,0,0-.32.06H169c-.13,0-.25,0-.39,0s0,0,0,0l-.57.07-.79.05c-.27,0-.55,0-.83,0h0c-.36,0-.72,0-1.08,0a.78.78,0,0,1-.22,0h-.28l-.67-.07-.25,0c-.24,0-.48-.07-.71-.12a2.29,2.29,0,0,1-.36-.07c-.57-.12-1.13-.27-1.68-.43a16.69,16.69,0,0,1-2.79-1.15,17.61,17.61,0,0,1-4.49-3.35,17.36,17.36,0,0,1-2.08-2.59,18.45,18.45,0,0,1-1.7-3.31h0a19.38,19.38,0,0,1-.72-2.39v0s0,0,0,0a17.44,17.44,0,0,1,4.23-15.66,15.7,15.7,0,0,1,2.07-1.92h0a17.46,17.46,0,0,1,22.82,1.15,10.72,10.72,0,0,1,.94,1s0,0,0,0a18.27,18.27,0,0,1,1.16,1.47h0A17.46,17.46,0,0,1,183.82,47.31Z"/></g></g></svg>