<svg xmlns="http://www.w3.org/2000/svg" viewBox="0 0 163.64 139.35"><defs><style>.cls-1{fill:#fff;}</style></defs><g id="Capa_2" data-name="Capa 2"><g id="Layer_1" data-name="Layer 1"><path class="cls-1" d="M160.92,99.11c-.29-.47-.61-.91-.94-1.35s-.53-.66-.81-1l-.65-.67a18.48,18.48,0,0,0-1.71-1.51,17.38,17.38,0,0,0-6.47-3.11l.33.07c-3.55-1.28-6.07-3.36-8.91-6.2A26.12,26.12,0,0,1,138.92,82a28.18,28.18,0,0,1-4.73-19.67,25.58,25.58,0,0,1,1.53-7.46c.21-.36.42-.72.6-1.1a17.48,17.48,0,0,0-1.44-18h0a16.39,16.39,0,0,0-1.17-1.47s0,0,0,0a10.72,10.72,0,0,0-.94-1,17.47,17.47,0,0,0-22.83-1.15h0a15.78,15.78,0,0,0-2.08,1.92,17.47,17.47,0,0,0-4.22,15.66s0,0,0,0v0c.27,11.78-3.08,18.47-9.76,19.13a5.62,5.62,0,0,1-3.64-1.08c-8.66-8.84-6.35-21.36-4.38-36.49.09-.31.17-.62.24-.94a24.28,24.28,0,0,0,.6-6.15c0-.06,0-.1,0-.15h0a25.19,25.19,0,0,0-1.89-8.8A24.88,24.88,0,0,0,73.43,2.93l-.61-.31c-.71-.36-1.43-.68-2.2-1v0A15,15,0,0,0,68.73,1a24.81,24.81,0,0,0-16.62.92,25.11,25.11,0,0,0-8.28,5.59c-.32.34-.66.68-1,1.05a23.31,23.31,0,0,0-2.62,3.64l0,0c-.17.33-.33.61-.51.9s-.39.75-.58,1.15c0,.14-.12.29-.17.45l0,0c-.22.6-.48,1.19-.73,1.78-.15.42-.29.85-.41,1.28a.53.53,0,0,0-.06.16h0l-.06.22a24.93,24.93,0,0,0-.59,11c.18,1,.39,1.91.67,2.87s.55,1.68.89,2.52a26.3,26.3,0,0,0,1.47,3c1.43,3.34,1.76,6.53,2.32,10.21a39.71,39.71,0,0,1,.23,6.29A38.2,38.2,0,0,1,35.3,76.68c-4.43,6.1-9.46,10.86-16.66,13.5,0,0,0,0,0,0a22,22,0,0,0-2.68.86h0l-.9.36c-.21.1-.42.19-.63.3a24.52,24.52,0,0,0-7,4.88,26.22,26.22,0,0,0-2.5,2.87,25.16,25.16,0,0,0-2.39,4,25,25,0,0,0,3.35,27l.33.39a25.56,25.56,0,0,0,3.78,3.5l.47.37a25.77,25.77,0,0,0,3.24,1.95c.17.1.34.18.52.27.7.33,1.42.63,2.14.91l.08,0A25.19,25.19,0,0,0,25,139.35,24.9,24.9,0,0,0,41.67,133a23.52,23.52,0,0,0,3.08-3.3,24.6,24.6,0,0,0,5.18-13.79,15.29,15.29,0,0,0,.06-1.53,8.72,8.72,0,0,0,0-.88,24.58,24.58,0,0,0-1.84-8.6,23.07,23.07,0,0,0-2.08-4h0a38.43,38.43,0,0,1,11.65-46s0,0,.07,0a2.81,2.81,0,0,1,.44-.33,6.26,6.26,0,0,1,3.59-1.11,6.35,6.35,0,0,1,3.06.78.86.86,0,0,1,.22.15,4.62,4.62,0,0,1,.8.53v0c7.93,5.5,11.53,12.06,12.84,20.05a13.19,13.19,0,0,0,13,11,13.51,13.51,0,0,0,1.67-.11A11.84,11.84,0,0,0,102,79c3.37-8.48,8.64-11.73,14-13.58l.31-.11.39-.1h0a6.37,6.37,0,0,1,5.43,1.26,1.43,1.43,0,0,1,.23.2l.17.15c1,.88,1.88,1.71,2.39,2.21A26.74,26.74,0,0,1,132.7,84.7c.63,5,.65,10.14-1.54,14.79l.25-.38a17.56,17.56,0,0,0-2.54,6.82,17.82,17.82,0,0,0-.16,3.5,17.47,17.47,0,0,0,3.52,9.6,18.85,18.85,0,0,0,1.58,1.8c.28.28.55.54.85.79a17.4,17.4,0,0,0,5.18,3.15,17.12,17.12,0,0,0,1.8.58,17.46,17.46,0,0,0,16.88-4.52,17.16,17.16,0,0,0,2.66-3.41,15.52,15.52,0,0,0,.94-1.81,17.49,17.49,0,0,0-1.2-16.5Z"/></g></g></svg>